solid OpenSCAD_Model
  facet normal 0.996584 0.08258 0
    outer loop
      vertex -49 -25 32.5
      vertex -49.0409 -24.5062 14
      vertex -49.0409 -24.5062 32.5
    endloop
  endfacet
  facet normal 0.996584 0.08258 0
    outer loop
      vertex -49.0409 -24.5062 14
      vertex -49 -25 32.5
      vertex -49 -25 14
    endloop
  endfacet
  facet normal -0.996584 0.08258 0
    outer loop
      vertex -55 -25 14
      vertex -54.9591 -24.5062 32.5
      vertex -54.9591 -24.5062 14
    endloop
  endfacet
  facet normal -0.996584 0.08258 0
    outer loop
      vertex -54.9591 -24.5062 32.5
      vertex -55 -25 14
      vertex -55 -25 32.5
    endloop
  endfacet
  facet normal 0 1 -0
    outer loop
      vertex -51.7523 -22.0102 14
      vertex -52.2477 -22.0102 32.5
      vertex -51.7523 -22.0102 32.5
    endloop
  endfacet
  facet normal 0 1 0
    outer loop
      vertex -52.2477 -22.0102 32.5
      vertex -51.7523 -22.0102 14
      vertex -52.2477 -22.0102 14
    endloop
  endfacet
  facet normal 0 -1 0
    outer loop
      vertex -52.2477 -27.9898 14
      vertex -51.7523 -27.9898 32.5
      vertex -52.2477 -27.9898 32.5
    endloop
  endfacet
  facet normal 0 -1 -0
    outer loop
      vertex -51.7523 -27.9898 32.5
      vertex -52.2477 -27.9898 14
      vertex -51.7523 -27.9898 14
    endloop
  endfacet
  facet normal 0.735723 -0.677283 0
    outer loop
      vertex -49.9682 -27.2072 32.5
      vertex -49.6326 -26.8426 14
      vertex -49.6326 -26.8426 32.5
    endloop
  endfacet
  facet normal 0.735723 -0.677283 0
    outer loop
      vertex -49.6326 -26.8426 14
      vertex -49.9682 -27.2072 32.5
      vertex -49.9682 -27.2072 14
    endloop
  endfacet
  facet normal 0.614216 0.789138 -0
    outer loop
      vertex -49.9682 -22.7928 14
      vertex -50.3592 -22.4885 32.5
      vertex -49.9682 -22.7928 32.5
    endloop
  endfacet
  facet normal 0.614216 0.789138 0
    outer loop
      vertex -50.3592 -22.4885 32.5
      vertex -49.9682 -22.7928 14
      vertex -50.3592 -22.4885 14
    endloop
  endfacet
  facet normal -0.735725 0.677281 0
    outer loop
      vertex -54.3674 -23.1574 14
      vertex -54.0318 -22.7928 32.5
      vertex -54.0318 -22.7928 14
    endloop
  endfacet
  facet normal -0.735725 0.677281 0
    outer loop
      vertex -54.0318 -22.7928 32.5
      vertex -54.3674 -23.1574 14
      vertex -54.3674 -23.1574 32.5
    endloop
  endfacet
  facet normal -0.475943 0.879476 0
    outer loop
      vertex -53.2051 -22.2527 14
      vertex -53.6408 -22.4885 32.5
      vertex -53.2051 -22.2527 32.5
    endloop
  endfacet
  facet normal -0.475943 0.879476 0
    outer loop
      vertex -53.6408 -22.4885 32.5
      vertex -53.2051 -22.2527 14
      vertex -53.6408 -22.4885 14
    endloop
  endfacet
  facet normal 0.83717 -0.546942 0
    outer loop
      vertex -49.6326 -26.8426 32.5
      vertex -49.3616 -26.4278 14
      vertex -49.3616 -26.4278 32.5
    endloop
  endfacet
  facet normal 0.83717 -0.546942 0
    outer loop
      vertex -49.3616 -26.4278 14
      vertex -49.6326 -26.8426 32.5
      vertex -49.6326 -26.8426 14
    endloop
  endfacet
  facet normal 0.915773 0.401697 0
    outer loop
      vertex -49.1625 -24.0259 32.5
      vertex -49.3616 -23.5722 14
      vertex -49.3616 -23.5722 32.5
    endloop
  endfacet
  facet normal 0.915773 0.401697 0
    outer loop
      vertex -49.3616 -23.5722 14
      vertex -49.1625 -24.0259 32.5
      vertex -49.1625 -24.0259 14
    endloop
  endfacet
  facet normal 0.9694 0.245485 0
    outer loop
      vertex -49.0409 -24.5062 32.5
      vertex -49.1625 -24.0259 14
      vertex -49.1625 -24.0259 32.5
    endloop
  endfacet
  facet normal 0.9694 0.245485 0
    outer loop
      vertex -49.1625 -24.0259 14
      vertex -49.0409 -24.5062 32.5
      vertex -49.0409 -24.5062 14
    endloop
  endfacet
  facet normal 0.83717 0.546942 0
    outer loop
      vertex -49.3616 -23.5722 32.5
      vertex -49.6326 -23.1574 14
      vertex -49.6326 -23.1574 32.5
    endloop
  endfacet
  facet normal 0.83717 0.546942 0
    outer loop
      vertex -49.6326 -23.1574 14
      vertex -49.3616 -23.5722 32.5
      vertex -49.3616 -23.5722 14
    endloop
  endfacet
  facet normal 0.324701 0.945817 -0
    outer loop
      vertex -50.7949 -22.2527 14
      vertex -51.2635 -22.0918 32.5
      vertex -50.7949 -22.2527 32.5
    endloop
  endfacet
  facet normal 0.324701 0.945817 0
    outer loop
      vertex -51.2635 -22.0918 32.5
      vertex -50.7949 -22.2527 14
      vertex -51.2635 -22.0918 14
    endloop
  endfacet
  facet normal 0.164594 0.986361 -0
    outer loop
      vertex -51.2635 -22.0918 14
      vertex -51.7523 -22.0102 32.5
      vertex -51.2635 -22.0918 32.5
    endloop
  endfacet
  facet normal 0.164594 0.986361 0
    outer loop
      vertex -51.7523 -22.0102 32.5
      vertex -51.2635 -22.0918 14
      vertex -51.7523 -22.0102 14
    endloop
  endfacet
  facet normal 0.475943 0.879476 -0
    outer loop
      vertex -50.3592 -22.4885 14
      vertex -50.7949 -22.2527 32.5
      vertex -50.3592 -22.4885 32.5
    endloop
  endfacet
  facet normal 0.475943 0.879476 0
    outer loop
      vertex -50.7949 -22.2527 32.5
      vertex -50.3592 -22.4885 14
      vertex -50.7949 -22.2527 14
    endloop
  endfacet
  facet normal -0.915773 0.401697 0
    outer loop
      vertex -54.8375 -24.0259 14
      vertex -54.6384 -23.5722 32.5
      vertex -54.6384 -23.5722 14
    endloop
  endfacet
  facet normal -0.915773 0.401697 0
    outer loop
      vertex -54.6384 -23.5722 32.5
      vertex -54.8375 -24.0259 14
      vertex -54.8375 -24.0259 32.5
    endloop
  endfacet
  facet normal -0.837167 0.546948 0
    outer loop
      vertex -54.6384 -23.5722 14
      vertex -54.3674 -23.1574 32.5
      vertex -54.3674 -23.1574 14
    endloop
  endfacet
  facet normal -0.837167 0.546948 0
    outer loop
      vertex -54.3674 -23.1574 32.5
      vertex -54.6384 -23.5722 14
      vertex -54.6384 -23.5722 32.5
    endloop
  endfacet
  facet normal -0.9694 0.245485 0
    outer loop
      vertex -54.9591 -24.5062 14
      vertex -54.8375 -24.0259 32.5
      vertex -54.8375 -24.0259 14
    endloop
  endfacet
  facet normal -0.9694 0.245485 0
    outer loop
      vertex -54.8375 -24.0259 32.5
      vertex -54.9591 -24.5062 14
      vertex -54.9591 -24.5062 32.5
    endloop
  endfacet
  facet normal 0 0 1
    outer loop
      vertex -50.6 -25 32.5
      vertex -49 -25 32.5
      vertex -49.0409 -24.5062 32.5
    endloop
  endfacet
  facet normal 0 0 1
    outer loop
      vertex -50.6844 -24.5212 32.5
      vertex -49.0409 -24.5062 32.5
      vertex -49.1625 -24.0259 32.5
    endloop
  endfacet
  facet normal 0 0 1
    outer loop
      vertex -49 -25 32.5
      vertex -50.6 -25 32.5
      vertex -49.0409 -25.4938 32.5
    endloop
  endfacet
  facet normal 0 0 1
    outer loop
      vertex -50.6844 -24.5212 32.5
      vertex -49.1625 -24.0259 32.5
      vertex -49.3616 -23.5722 32.5
    endloop
  endfacet
  facet normal -0 0 1
    outer loop
      vertex -50.6844 -25.4788 32.5
      vertex -49.0409 -25.4938 32.5
      vertex -50.6 -25 32.5
    endloop
  endfacet
  facet normal 0 0 1
    outer loop
      vertex -50.9275 -24.1001 32.5
      vertex -49.3616 -23.5722 32.5
      vertex -49.6326 -23.1574 32.5
    endloop
  endfacet
  facet normal 0 0 1
    outer loop
      vertex -49.0409 -25.4938 32.5
      vertex -50.6844 -25.4788 32.5
      vertex -49.1625 -25.9741 32.5
    endloop
  endfacet
  facet normal 0 0 1
    outer loop
      vertex -50.9275 -24.1001 32.5
      vertex -49.6326 -23.1574 32.5
      vertex -49.9682 -22.7928 32.5
    endloop
  endfacet
  facet normal 0 0 1
    outer loop
      vertex -49.1625 -25.9741 32.5
      vertex -50.6844 -25.4788 32.5
      vertex -49.3616 -26.4278 32.5
    endloop
  endfacet
  facet normal 0 0 1
    outer loop
      vertex -51.3 -23.7876 32.5
      vertex -49.9682 -22.7928 32.5
      vertex -50.3592 -22.4885 32.5
    endloop
  endfacet
  facet normal -0 0 1
    outer loop
      vertex -50.9275 -25.8999 32.5
      vertex -49.3616 -26.4278 32.5
      vertex -50.6844 -25.4788 32.5
    endloop
  endfacet
  facet normal 0 0 1
    outer loop
      vertex -49.3616 -26.4278 32.5
      vertex -50.9275 -25.8999 32.5
      vertex -49.6326 -26.8426 32.5
    endloop
  endfacet
  facet normal 0 0 1
    outer loop
      vertex -49.0409 -24.5062 32.5
      vertex -50.6844 -24.5212 32.5
      vertex -50.6 -25 32.5
    endloop
  endfacet
  facet normal 0 0 1
    outer loop
      vertex -51.3 -23.7876 32.5
      vertex -50.3592 -22.4885 32.5
      vertex -50.7949 -22.2527 32.5
    endloop
  endfacet
  facet normal 0 0 1
    outer loop
      vertex -49.3616 -23.5722 32.5
      vertex -50.9275 -24.1001 32.5
      vertex -50.6844 -24.5212 32.5
    endloop
  endfacet
  facet normal 0 0 1
    outer loop
      vertex -51.7569 -23.6213 32.5
      vertex -50.7949 -22.2527 32.5
      vertex -51.2635 -22.0918 32.5
    endloop
  endfacet
  facet normal 0 0 1
    outer loop
      vertex -49.9682 -22.7928 32.5
      vertex -51.3 -23.7876 32.5
      vertex -50.9275 -24.1001 32.5
    endloop
  endfacet
  facet normal 0 0 1
    outer loop
      vertex -51.7569 -23.6213 32.5
      vertex -51.2635 -22.0918 32.5
      vertex -51.7523 -22.0102 32.5
    endloop
  endfacet
  facet normal 0 0 1
    outer loop
      vertex -50.7949 -22.2527 32.5
      vertex -51.7569 -23.6213 32.5
      vertex -51.3 -23.7876 32.5
    endloop
  endfacet
  facet normal 0 0 1
    outer loop
      vertex -51.7523 -22.0102 32.5
      vertex -52.2431 -23.6213 32.5
      vertex -51.7569 -23.6213 32.5
    endloop
  endfacet
  facet normal -0 0 1
    outer loop
      vertex -52.2477 -22.0102 32.5
      vertex -52.2431 -23.6213 32.5
      vertex -51.7523 -22.0102 32.5
    endloop
  endfacet
  facet normal -0 0 1
    outer loop
      vertex -52.7365 -22.0918 32.5
      vertex -52.2431 -23.6213 32.5
      vertex -52.2477 -22.0102 32.5
    endloop
  endfacet
  facet normal -0 0 1
    outer loop
      vertex -53.2051 -22.2527 32.5
      vertex -52.2431 -23.6213 32.5
      vertex -52.7365 -22.0918 32.5
    endloop
  endfacet
  facet normal 0 0 1
    outer loop
      vertex -52.2431 -23.6213 32.5
      vertex -53.2051 -22.2527 32.5
      vertex -52.7 -23.7876 32.5
    endloop
  endfacet
  facet normal -0 0 1
    outer loop
      vertex -53.6408 -22.4885 32.5
      vertex -52.7 -23.7876 32.5
      vertex -53.2051 -22.2527 32.5
    endloop
  endfacet
  facet normal -0 0 1
    outer loop
      vertex -54.0318 -22.7928 32.5
      vertex -52.7 -23.7876 32.5
      vertex -53.6408 -22.4885 32.5
    endloop
  endfacet
  facet normal 0 0 1
    outer loop
      vertex -52.7 -23.7876 32.5
      vertex -54.0318 -22.7928 32.5
      vertex -53.0725 -24.1001 32.5
    endloop
  endfacet
  facet normal -0 0 1
    outer loop
      vertex -54.3674 -23.1574 32.5
      vertex -53.0725 -24.1001 32.5
      vertex -54.0318 -22.7928 32.5
    endloop
  endfacet
  facet normal 0 0 1
    outer loop
      vertex -49.6326 -26.8426 32.5
      vertex -50.9275 -25.8999 32.5
      vertex -49.9682 -27.2072 32.5
    endloop
  endfacet
  facet normal -0 0 1
    outer loop
      vertex -51.3 -26.2124 32.5
      vertex -49.9682 -27.2072 32.5
      vertex -50.9275 -25.8999 32.5
    endloop
  endfacet
  facet normal 0 0 1
    outer loop
      vertex -49.9682 -27.2072 32.5
      vertex -51.3 -26.2124 32.5
      vertex -50.3592 -27.5115 32.5
    endloop
  endfacet
  facet normal 0 0 1
    outer loop
      vertex -50.3592 -27.5115 32.5
      vertex -51.3 -26.2124 32.5
      vertex -50.7949 -27.7473 32.5
    endloop
  endfacet
  facet normal -0 0 1
    outer loop
      vertex -51.7569 -26.3787 32.5
      vertex -50.7949 -27.7473 32.5
      vertex -51.3 -26.2124 32.5
    endloop
  endfacet
  facet normal 0 0 1
    outer loop
      vertex -50.7949 -27.7473 32.5
      vertex -51.7569 -26.3787 32.5
      vertex -51.2635 -27.9082 32.5
    endloop
  endfacet
  facet normal 0 0 1
    outer loop
      vertex -51.2635 -27.9082 32.5
      vertex -51.7569 -26.3787 32.5
      vertex -51.7523 -27.9898 32.5
    endloop
  endfacet
  facet normal -0 0 1
    outer loop
      vertex -52.2431 -26.3787 32.5
      vertex -51.7523 -27.9898 32.5
      vertex -51.7569 -26.3787 32.5
    endloop
  endfacet
  facet normal 0 0 1
    outer loop
      vertex -52.2431 -26.3787 32.5
      vertex -52.2477 -27.9898 32.5
      vertex -51.7523 -27.9898 32.5
    endloop
  endfacet
  facet normal 0 0 1
    outer loop
      vertex -53.2051 -27.7473 32.5
      vertex -52.2431 -26.3787 32.5
      vertex -52.7 -26.2124 32.5
    endloop
  endfacet
  facet normal 0 0 1
    outer loop
      vertex -52.2431 -26.3787 32.5
      vertex -52.7365 -27.9082 32.5
      vertex -52.2477 -27.9898 32.5
    endloop
  endfacet
  facet normal 0 0 1
    outer loop
      vertex -54.0318 -27.2072 32.5
      vertex -52.7 -26.2124 32.5
      vertex -53.0725 -25.8999 32.5
    endloop
  endfacet
  facet normal 0 0 1
    outer loop
      vertex -52.2431 -26.3787 32.5
      vertex -53.2051 -27.7473 32.5
      vertex -52.7365 -27.9082 32.5
    endloop
  endfacet
  facet normal 0 0 1
    outer loop
      vertex -54.6384 -26.4278 32.5
      vertex -53.0725 -25.8999 32.5
      vertex -53.3156 -25.4788 32.5
    endloop
  endfacet
  facet normal 0 0 1
    outer loop
      vertex -54.9591 -25.4938 32.5
      vertex -53.3156 -25.4788 32.5
      vertex -53.4 -25 32.5
    endloop
  endfacet
  facet normal -0 0 1
    outer loop
      vertex -54.6384 -23.5722 32.5
      vertex -53.0725 -24.1001 32.5
      vertex -54.3674 -23.1574 32.5
    endloop
  endfacet
  facet normal 0 0 1
    outer loop
      vertex -52.7 -26.2124 32.5
      vertex -53.6408 -27.5115 32.5
      vertex -53.2051 -27.7473 32.5
    endloop
  endfacet
  facet normal 0 0 1
    outer loop
      vertex -53.0725 -24.1001 32.5
      vertex -54.6384 -23.5722 32.5
      vertex -53.3156 -24.5212 32.5
    endloop
  endfacet
  facet normal 0 0 1
    outer loop
      vertex -52.7 -26.2124 32.5
      vertex -54.0318 -27.2072 32.5
      vertex -53.6408 -27.5115 32.5
    endloop
  endfacet
  facet normal -0 0 1
    outer loop
      vertex -54.8375 -24.0259 32.5
      vertex -53.3156 -24.5212 32.5
      vertex -54.6384 -23.5722 32.5
    endloop
  endfacet
  facet normal 0 0 1
    outer loop
      vertex -53.0725 -25.8999 32.5
      vertex -54.3674 -26.8426 32.5
      vertex -54.0318 -27.2072 32.5
    endloop
  endfacet
  facet normal -0 0 1
    outer loop
      vertex -54.9591 -24.5062 32.5
      vertex -53.3156 -24.5212 32.5
      vertex -54.8375 -24.0259 32.5
    endloop
  endfacet
  facet normal 0 0 1
    outer loop
      vertex -53.0725 -25.8999 32.5
      vertex -54.6384 -26.4278 32.5
      vertex -54.3674 -26.8426 32.5
    endloop
  endfacet
  facet normal 0 0 1
    outer loop
      vertex -53.3156 -24.5212 32.5
      vertex -54.9591 -24.5062 32.5
      vertex -53.4 -25 32.5
    endloop
  endfacet
  facet normal 0 0 1
    outer loop
      vertex -53.3156 -25.4788 32.5
      vertex -54.8375 -25.9741 32.5
      vertex -54.6384 -26.4278 32.5
    endloop
  endfacet
  facet normal 0 0 1
    outer loop
      vertex -55 -25 32.5
      vertex -53.4 -25 32.5
      vertex -54.9591 -24.5062 32.5
    endloop
  endfacet
  facet normal 0 0 1
    outer loop
      vertex -53.3156 -25.4788 32.5
      vertex -54.9591 -25.4938 32.5
      vertex -54.8375 -25.9741 32.5
    endloop
  endfacet
  facet normal 0 0 1
    outer loop
      vertex -53.4 -25 32.5
      vertex -55 -25 32.5
      vertex -54.9591 -25.4938 32.5
    endloop
  endfacet
  facet normal -0.614216 0.789138 0
    outer loop
      vertex -53.6408 -22.4885 14
      vertex -54.0318 -22.7928 32.5
      vertex -53.6408 -22.4885 32.5
    endloop
  endfacet
  facet normal -0.614216 0.789138 0
    outer loop
      vertex -54.0318 -22.7928 32.5
      vertex -53.6408 -22.4885 14
      vertex -54.0318 -22.7928 14
    endloop
  endfacet
  facet normal -0.164594 0.986361 0
    outer loop
      vertex -52.2477 -22.0102 14
      vertex -52.7365 -22.0918 32.5
      vertex -52.2477 -22.0102 32.5
    endloop
  endfacet
  facet normal -0.164594 0.986361 0
    outer loop
      vertex -52.7365 -22.0918 32.5
      vertex -52.2477 -22.0102 14
      vertex -52.7365 -22.0918 14
    endloop
  endfacet
  facet normal 0.996584 -0.0825803 0
    outer loop
      vertex -49.0409 -25.4938 32.5
      vertex -49 -25 14
      vertex -49 -25 32.5
    endloop
  endfacet
  facet normal 0.996584 -0.0825803 0
    outer loop
      vertex -49 -25 14
      vertex -49.0409 -25.4938 32.5
      vertex -49.0409 -25.4938 14
    endloop
  endfacet
  facet normal 0 0 -1
    outer loop
      vertex -50.6 -25 14
      vertex -49 -25 14
      vertex -49.0409 -25.4938 14
    endloop
  endfacet
  facet normal 0 0 -1
    outer loop
      vertex -50.6844 -25.4788 14
      vertex -49.0409 -25.4938 14
      vertex -49.1625 -25.9741 14
    endloop
  endfacet
  facet normal 0 0 -1
    outer loop
      vertex -49 -25 14
      vertex -50.6 -25 14
      vertex -49.0409 -24.5062 14
    endloop
  endfacet
  facet normal 0 0 -1
    outer loop
      vertex -50.6844 -25.4788 14
      vertex -49.1625 -25.9741 14
      vertex -49.3616 -26.4278 14
    endloop
  endfacet
  facet normal 0 0 -1
    outer loop
      vertex -50.6844 -24.5212 14
      vertex -49.0409 -24.5062 14
      vertex -50.6 -25 14
    endloop
  endfacet
  facet normal 0 0 -1
    outer loop
      vertex -50.9275 -25.8999 14
      vertex -49.3616 -26.4278 14
      vertex -49.6326 -26.8426 14
    endloop
  endfacet
  facet normal -0 0 -1
    outer loop
      vertex -49.0409 -24.5062 14
      vertex -50.6844 -24.5212 14
      vertex -49.1625 -24.0259 14
    endloop
  endfacet
  facet normal 0 0 -1
    outer loop
      vertex -50.9275 -25.8999 14
      vertex -49.6326 -26.8426 14
      vertex -49.9682 -27.2072 14
    endloop
  endfacet
  facet normal -0 0 -1
    outer loop
      vertex -49.1625 -24.0259 14
      vertex -50.6844 -24.5212 14
      vertex -49.3616 -23.5722 14
    endloop
  endfacet
  facet normal 0 0 -1
    outer loop
      vertex -51.3 -26.2124 14
      vertex -49.9682 -27.2072 14
      vertex -50.3592 -27.5115 14
    endloop
  endfacet
  facet normal 0 0 -1
    outer loop
      vertex -50.9275 -24.1001 14
      vertex -49.3616 -23.5722 14
      vertex -50.6844 -24.5212 14
    endloop
  endfacet
  facet normal -0 0 -1
    outer loop
      vertex -49.3616 -23.5722 14
      vertex -50.9275 -24.1001 14
      vertex -49.6326 -23.1574 14
    endloop
  endfacet
  facet normal 0 0 -1
    outer loop
      vertex -49.0409 -25.4938 14
      vertex -50.6844 -25.4788 14
      vertex -50.6 -25 14
    endloop
  endfacet
  facet normal 0 0 -1
    outer loop
      vertex -51.3 -26.2124 14
      vertex -50.3592 -27.5115 14
      vertex -50.7949 -27.7473 14
    endloop
  endfacet
  facet normal 0 0 -1
    outer loop
      vertex -49.3616 -26.4278 14
      vertex -50.9275 -25.8999 14
      vertex -50.6844 -25.4788 14
    endloop
  endfacet
  facet normal 0 0 -1
    outer loop
      vertex -51.7569 -26.3787 14
      vertex -50.7949 -27.7473 14
      vertex -51.2635 -27.9082 14
    endloop
  endfacet
  facet normal 0 0 -1
    outer loop
      vertex -49.9682 -27.2072 14
      vertex -51.3 -26.2124 14
      vertex -50.9275 -25.8999 14
    endloop
  endfacet
  facet normal 0 0 -1
    outer loop
      vertex -51.7569 -26.3787 14
      vertex -51.2635 -27.9082 14
      vertex -51.7523 -27.9898 14
    endloop
  endfacet
  facet normal 0 0 -1
    outer loop
      vertex -50.7949 -27.7473 14
      vertex -51.7569 -26.3787 14
      vertex -51.3 -26.2124 14
    endloop
  endfacet
  facet normal 0 0 -1
    outer loop
      vertex -51.7523 -27.9898 14
      vertex -52.2431 -26.3787 14
      vertex -51.7569 -26.3787 14
    endloop
  endfacet
  facet normal 0 0 -1
    outer loop
      vertex -52.2477 -27.9898 14
      vertex -52.2431 -26.3787 14
      vertex -51.7523 -27.9898 14
    endloop
  endfacet
  facet normal 0 0 -1
    outer loop
      vertex -52.7365 -27.9082 14
      vertex -52.2431 -26.3787 14
      vertex -52.2477 -27.9898 14
    endloop
  endfacet
  facet normal 0 0 -1
    outer loop
      vertex -53.2051 -27.7473 14
      vertex -52.2431 -26.3787 14
      vertex -52.7365 -27.9082 14
    endloop
  endfacet
  facet normal -0 0 -1
    outer loop
      vertex -52.2431 -26.3787 14
      vertex -53.2051 -27.7473 14
      vertex -52.7 -26.2124 14
    endloop
  endfacet
  facet normal 0 0 -1
    outer loop
      vertex -53.6408 -27.5115 14
      vertex -52.7 -26.2124 14
      vertex -53.2051 -27.7473 14
    endloop
  endfacet
  facet normal 0 0 -1
    outer loop
      vertex -54.0318 -27.2072 14
      vertex -52.7 -26.2124 14
      vertex -53.6408 -27.5115 14
    endloop
  endfacet
  facet normal -0 0 -1
    outer loop
      vertex -52.7 -26.2124 14
      vertex -54.0318 -27.2072 14
      vertex -53.0725 -25.8999 14
    endloop
  endfacet
  facet normal 0 0 -1
    outer loop
      vertex -54.3674 -26.8426 14
      vertex -53.0725 -25.8999 14
      vertex -54.0318 -27.2072 14
    endloop
  endfacet
  facet normal -0 0 -1
    outer loop
      vertex -49.6326 -23.1574 14
      vertex -50.9275 -24.1001 14
      vertex -49.9682 -22.7928 14
    endloop
  endfacet
  facet normal 0 0 -1
    outer loop
      vertex -51.3 -23.7876 14
      vertex -49.9682 -22.7928 14
      vertex -50.9275 -24.1001 14
    endloop
  endfacet
  facet normal -0 0 -1
    outer loop
      vertex -49.9682 -22.7928 14
      vertex -51.3 -23.7876 14
      vertex -50.3592 -22.4885 14
    endloop
  endfacet
  facet normal -0 0 -1
    outer loop
      vertex -50.3592 -22.4885 14
      vertex -51.3 -23.7876 14
      vertex -50.7949 -22.2527 14
    endloop
  endfacet
  facet normal 0 0 -1
    outer loop
      vertex -51.7569 -23.6213 14
      vertex -50.7949 -22.2527 14
      vertex -51.3 -23.7876 14
    endloop
  endfacet
  facet normal -0 0 -1
    outer loop
      vertex -50.7949 -22.2527 14
      vertex -51.7569 -23.6213 14
      vertex -51.2635 -22.0918 14
    endloop
  endfacet
  facet normal -0 0 -1
    outer loop
      vertex -51.2635 -22.0918 14
      vertex -51.7569 -23.6213 14
      vertex -51.7523 -22.0102 14
    endloop
  endfacet
  facet normal 0 0 -1
    outer loop
      vertex -52.2431 -23.6213 14
      vertex -51.7523 -22.0102 14
      vertex -51.7569 -23.6213 14
    endloop
  endfacet
  facet normal 0 0 -1
    outer loop
      vertex -52.2431 -23.6213 14
      vertex -52.2477 -22.0102 14
      vertex -51.7523 -22.0102 14
    endloop
  endfacet
  facet normal 0 0 -1
    outer loop
      vertex -53.2051 -22.2527 14
      vertex -52.2431 -23.6213 14
      vertex -52.7 -23.7876 14
    endloop
  endfacet
  facet normal 0 0 -1
    outer loop
      vertex -52.2431 -23.6213 14
      vertex -52.7365 -22.0918 14
      vertex -52.2477 -22.0102 14
    endloop
  endfacet
  facet normal 0 0 -1
    outer loop
      vertex -54.0318 -22.7928 14
      vertex -52.7 -23.7876 14
      vertex -53.0725 -24.1001 14
    endloop
  endfacet
  facet normal 0 0 -1
    outer loop
      vertex -52.2431 -23.6213 14
      vertex -53.2051 -22.2527 14
      vertex -52.7365 -22.0918 14
    endloop
  endfacet
  facet normal 0 0 -1
    outer loop
      vertex -54.6384 -23.5722 14
      vertex -53.0725 -24.1001 14
      vertex -53.3156 -24.5212 14
    endloop
  endfacet
  facet normal 0 0 -1
    outer loop
      vertex -54.9591 -24.5062 14
      vertex -53.3156 -24.5212 14
      vertex -53.4 -25 14
    endloop
  endfacet
  facet normal 0 0 -1
    outer loop
      vertex -54.6384 -26.4278 14
      vertex -53.0725 -25.8999 14
      vertex -54.3674 -26.8426 14
    endloop
  endfacet
  facet normal 0 0 -1
    outer loop
      vertex -52.7 -23.7876 14
      vertex -53.6408 -22.4885 14
      vertex -53.2051 -22.2527 14
    endloop
  endfacet
  facet normal -0 0 -1
    outer loop
      vertex -53.0725 -25.8999 14
      vertex -54.6384 -26.4278 14
      vertex -53.3156 -25.4788 14
    endloop
  endfacet
  facet normal 0 0 -1
    outer loop
      vertex -52.7 -23.7876 14
      vertex -54.0318 -22.7928 14
      vertex -53.6408 -22.4885 14
    endloop
  endfacet
  facet normal 0 0 -1
    outer loop
      vertex -54.8375 -25.9741 14
      vertex -53.3156 -25.4788 14
      vertex -54.6384 -26.4278 14
    endloop
  endfacet
  facet normal 0 0 -1
    outer loop
      vertex -53.0725 -24.1001 14
      vertex -54.3674 -23.1574 14
      vertex -54.0318 -22.7928 14
    endloop
  endfacet
  facet normal 0 0 -1
    outer loop
      vertex -54.9591 -25.4938 14
      vertex -53.3156 -25.4788 14
      vertex -54.8375 -25.9741 14
    endloop
  endfacet
  facet normal 0 0 -1
    outer loop
      vertex -53.0725 -24.1001 14
      vertex -54.6384 -23.5722 14
      vertex -54.3674 -23.1574 14
    endloop
  endfacet
  facet normal -0 0 -1
    outer loop
      vertex -53.3156 -25.4788 14
      vertex -54.9591 -25.4938 14
      vertex -53.4 -25 14
    endloop
  endfacet
  facet normal 0 0 -1
    outer loop
      vertex -53.3156 -24.5212 14
      vertex -54.8375 -24.0259 14
      vertex -54.6384 -23.5722 14
    endloop
  endfacet
  facet normal 0 0 -1
    outer loop
      vertex -55 -25 14
      vertex -53.4 -25 14
      vertex -54.9591 -25.4938 14
    endloop
  endfacet
  facet normal 0 0 -1
    outer loop
      vertex -53.3156 -24.5212 14
      vertex -54.9591 -24.5062 14
      vertex -54.8375 -24.0259 14
    endloop
  endfacet
  facet normal 0 0 -1
    outer loop
      vertex -53.4 -25 14
      vertex -55 -25 14
      vertex -54.9591 -24.5062 14
    endloop
  endfacet
  facet normal 0.735721 0.677285 0
    outer loop
      vertex -49.6326 -23.1574 32.5
      vertex -49.9682 -22.7928 14
      vertex -49.9682 -22.7928 32.5
    endloop
  endfacet
  facet normal 0.735721 0.677285 0
    outer loop
      vertex -49.9682 -22.7928 14
      vertex -49.6326 -23.1574 32.5
      vertex -49.6326 -23.1574 14
    endloop
  endfacet
  facet normal 0.969401 -0.245484 0
    outer loop
      vertex -49.1625 -25.9741 32.5
      vertex -49.0409 -25.4938 14
      vertex -49.0409 -25.4938 32.5
    endloop
  endfacet
  facet normal 0.969401 -0.245484 0
    outer loop
      vertex -49.0409 -25.4938 14
      vertex -49.1625 -25.9741 32.5
      vertex -49.1625 -25.9741 14
    endloop
  endfacet
  facet normal -0.837167 -0.546948 0
    outer loop
      vertex -54.3674 -26.8426 14
      vertex -54.6384 -26.4278 32.5
      vertex -54.6384 -26.4278 14
    endloop
  endfacet
  facet normal -0.837167 -0.546948 0
    outer loop
      vertex -54.6384 -26.4278 32.5
      vertex -54.3674 -26.8426 14
      vertex -54.3674 -26.8426 32.5
    endloop
  endfacet
  facet normal -0.915772 -0.401698 0
    outer loop
      vertex -54.6384 -26.4278 14
      vertex -54.8375 -25.9741 32.5
      vertex -54.8375 -25.9741 14
    endloop
  endfacet
  facet normal -0.915772 -0.401698 0
    outer loop
      vertex -54.8375 -25.9741 32.5
      vertex -54.6384 -26.4278 14
      vertex -54.6384 -26.4278 32.5
    endloop
  endfacet
  facet normal 0.614213 -0.78914 0
    outer loop
      vertex -50.3592 -27.5115 14
      vertex -49.9682 -27.2072 32.5
      vertex -50.3592 -27.5115 32.5
    endloop
  endfacet
  facet normal 0.614213 -0.78914 0
    outer loop
      vertex -49.9682 -27.2072 32.5
      vertex -50.3592 -27.5115 14
      vertex -49.9682 -27.2072 14
    endloop
  endfacet
  facet normal 0.475943 -0.879476 0
    outer loop
      vertex -50.7949 -27.7473 14
      vertex -50.3592 -27.5115 32.5
      vertex -50.7949 -27.7473 32.5
    endloop
  endfacet
  facet normal 0.475943 -0.879476 0
    outer loop
      vertex -50.3592 -27.5115 32.5
      vertex -50.7949 -27.7473 14
      vertex -50.3592 -27.5115 14
    endloop
  endfacet
  facet normal -0.324701 0.945817 0
    outer loop
      vertex -52.7365 -22.0918 14
      vertex -53.2051 -22.2527 32.5
      vertex -52.7365 -22.0918 32.5
    endloop
  endfacet
  facet normal -0.324701 0.945817 0
    outer loop
      vertex -53.2051 -22.2527 32.5
      vertex -52.7365 -22.0918 14
      vertex -53.2051 -22.2527 14
    endloop
  endfacet
  facet normal 0.915772 -0.401698 0
    outer loop
      vertex -49.3616 -26.4278 32.5
      vertex -49.1625 -25.9741 14
      vertex -49.1625 -25.9741 32.5
    endloop
  endfacet
  facet normal 0.915772 -0.401698 0
    outer loop
      vertex -49.1625 -25.9741 14
      vertex -49.3616 -26.4278 32.5
      vertex -49.3616 -26.4278 14
    endloop
  endfacet
  facet normal -0.164597 -0.986361 0
    outer loop
      vertex -52.7365 -27.9082 14
      vertex -52.2477 -27.9898 32.5
      vertex -52.7365 -27.9082 32.5
    endloop
  endfacet
  facet normal -0.164597 -0.986361 -0
    outer loop
      vertex -52.2477 -27.9898 32.5
      vertex -52.7365 -27.9082 14
      vertex -52.2477 -27.9898 14
    endloop
  endfacet
  facet normal -0.735726 -0.677279 0
    outer loop
      vertex -54.0318 -27.2072 14
      vertex -54.3674 -26.8426 32.5
      vertex -54.3674 -26.8426 14
    endloop
  endfacet
  facet normal -0.735726 -0.677279 0
    outer loop
      vertex -54.3674 -26.8426 32.5
      vertex -54.0318 -27.2072 14
      vertex -54.0318 -27.2072 32.5
    endloop
  endfacet
  facet normal -0.969401 -0.245484 0
    outer loop
      vertex -54.8375 -25.9741 14
      vertex -54.9591 -25.4938 32.5
      vertex -54.9591 -25.4938 14
    endloop
  endfacet
  facet normal -0.969401 -0.245484 0
    outer loop
      vertex -54.9591 -25.4938 32.5
      vertex -54.8375 -25.9741 14
      vertex -54.8375 -25.9741 32.5
    endloop
  endfacet
  facet normal -0.996584 -0.0825803 0
    outer loop
      vertex -54.9591 -25.4938 14
      vertex -55 -25 32.5
      vertex -55 -25 14
    endloop
  endfacet
  facet normal -0.996584 -0.0825803 0
    outer loop
      vertex -55 -25 32.5
      vertex -54.9591 -25.4938 14
      vertex -54.9591 -25.4938 32.5
    endloop
  endfacet
  facet normal 0.324701 -0.945817 0
    outer loop
      vertex -51.2635 -27.9082 14
      vertex -50.7949 -27.7473 32.5
      vertex -51.2635 -27.9082 32.5
    endloop
  endfacet
  facet normal 0.324701 -0.945817 0
    outer loop
      vertex -50.7949 -27.7473 32.5
      vertex -51.2635 -27.9082 14
      vertex -50.7949 -27.7473 14
    endloop
  endfacet
  facet normal 0.164597 -0.986361 0
    outer loop
      vertex -51.7523 -27.9898 14
      vertex -51.2635 -27.9082 32.5
      vertex -51.7523 -27.9898 32.5
    endloop
  endfacet
  facet normal 0.164597 -0.986361 0
    outer loop
      vertex -51.2635 -27.9082 32.5
      vertex -51.7523 -27.9898 14
      vertex -51.2635 -27.9082 14
    endloop
  endfacet
  facet normal -0.614213 -0.78914 0
    outer loop
      vertex -54.0318 -27.2072 14
      vertex -53.6408 -27.5115 32.5
      vertex -54.0318 -27.2072 32.5
    endloop
  endfacet
  facet normal -0.614213 -0.78914 -0
    outer loop
      vertex -53.6408 -27.5115 32.5
      vertex -54.0318 -27.2072 14
      vertex -53.6408 -27.5115 14
    endloop
  endfacet
  facet normal -0.475943 -0.879476 0
    outer loop
      vertex -53.6408 -27.5115 14
      vertex -53.2051 -27.7473 32.5
      vertex -53.6408 -27.5115 32.5
    endloop
  endfacet
  facet normal -0.475943 -0.879476 -0
    outer loop
      vertex -53.2051 -27.7473 32.5
      vertex -53.6408 -27.5115 14
      vertex -53.2051 -27.7473 14
    endloop
  endfacet
  facet normal -0.324701 -0.945817 0
    outer loop
      vertex -53.2051 -27.7473 14
      vertex -52.7365 -27.9082 32.5
      vertex -53.2051 -27.7473 32.5
    endloop
  endfacet
  facet normal -0.324701 -0.945817 -0
    outer loop
      vertex -52.7365 -27.9082 32.5
      vertex -53.2051 -27.7473 14
      vertex -52.7365 -27.9082 14
    endloop
  endfacet
  facet normal -0.984808 -0.173649 0
    outer loop
      vertex -50.6 -25 14
      vertex -50.6844 -24.5212 32.5
      vertex -50.6844 -24.5212 14
    endloop
  endfacet
  facet normal -0.984808 -0.173649 0
    outer loop
      vertex -50.6844 -24.5212 32.5
      vertex -50.6 -25 14
      vertex -50.6 -25 32.5
    endloop
  endfacet
  facet normal 0.984806 -0.173656 0
    outer loop
      vertex -53.4 -25 32.5
      vertex -53.3156 -24.5212 14
      vertex -53.3156 -24.5212 32.5
    endloop
  endfacet
  facet normal 0.984806 -0.173656 0
    outer loop
      vertex -53.3156 -24.5212 14
      vertex -53.4 -25 32.5
      vertex -53.4 -25 14
    endloop
  endfacet
  facet normal 0.984806 0.173656 0
    outer loop
      vertex -53.3156 -25.4788 32.5
      vertex -53.4 -25 14
      vertex -53.4 -25 32.5
    endloop
  endfacet
  facet normal 0.984806 0.173656 0
    outer loop
      vertex -53.4 -25 14
      vertex -53.3156 -25.4788 32.5
      vertex -53.3156 -25.4788 14
    endloop
  endfacet
  facet normal 0 -1 0
    outer loop
      vertex -52.2431 -23.6213 14
      vertex -51.7569 -23.6213 32.5
      vertex -52.2431 -23.6213 32.5
    endloop
  endfacet
  facet normal 0 -1 -0
    outer loop
      vertex -51.7569 -23.6213 32.5
      vertex -52.2431 -23.6213 14
      vertex -51.7569 -23.6213 14
    endloop
  endfacet
  facet normal -0.642788 -0.766044 0
    outer loop
      vertex -51.3 -23.7876 14
      vertex -50.9275 -24.1001 32.5
      vertex -51.3 -23.7876 32.5
    endloop
  endfacet
  facet normal -0.642788 -0.766044 -0
    outer loop
      vertex -50.9275 -24.1001 32.5
      vertex -51.3 -23.7876 14
      vertex -50.9275 -24.1001 14
    endloop
  endfacet
  facet normal -0.866026 -0.5 0
    outer loop
      vertex -50.6844 -24.5212 14
      vertex -50.9275 -24.1001 32.5
      vertex -50.9275 -24.1001 14
    endloop
  endfacet
  facet normal -0.866026 -0.5 0
    outer loop
      vertex -50.9275 -24.1001 32.5
      vertex -50.6844 -24.5212 14
      vertex -50.6844 -24.5212 32.5
    endloop
  endfacet
  facet normal -0.342017 -0.939694 0
    outer loop
      vertex -51.7569 -23.6213 14
      vertex -51.3 -23.7876 32.5
      vertex -51.7569 -23.6213 32.5
    endloop
  endfacet
  facet normal -0.342017 -0.939694 -0
    outer loop
      vertex -51.3 -23.7876 32.5
      vertex -51.7569 -23.6213 14
      vertex -51.3 -23.7876 14
    endloop
  endfacet
  facet normal 0.342017 -0.939694 0
    outer loop
      vertex -52.7 -23.7876 14
      vertex -52.2431 -23.6213 32.5
      vertex -52.7 -23.7876 32.5
    endloop
  endfacet
  facet normal 0.342017 -0.939694 0
    outer loop
      vertex -52.2431 -23.6213 32.5
      vertex -52.7 -23.7876 14
      vertex -52.2431 -23.6213 14
    endloop
  endfacet
  facet normal 0.866029 -0.499994 0
    outer loop
      vertex -53.3156 -24.5212 32.5
      vertex -53.0725 -24.1001 14
      vertex -53.0725 -24.1001 32.5
    endloop
  endfacet
  facet normal 0.866029 -0.499994 0
    outer loop
      vertex -53.0725 -24.1001 14
      vertex -53.3156 -24.5212 32.5
      vertex -53.3156 -24.5212 14
    endloop
  endfacet
  facet normal 0.642788 -0.766044 0
    outer loop
      vertex -53.0725 -24.1001 14
      vertex -52.7 -23.7876 32.5
      vertex -53.0725 -24.1001 32.5
    endloop
  endfacet
  facet normal 0.642788 -0.766044 0
    outer loop
      vertex -52.7 -23.7876 32.5
      vertex -53.0725 -24.1001 14
      vertex -52.7 -23.7876 14
    endloop
  endfacet
  facet normal -0.866026 0.5 0
    outer loop
      vertex -50.9275 -25.8999 14
      vertex -50.6844 -25.4788 32.5
      vertex -50.6844 -25.4788 14
    endloop
  endfacet
  facet normal -0.866026 0.5 0
    outer loop
      vertex -50.6844 -25.4788 32.5
      vertex -50.9275 -25.8999 14
      vertex -50.9275 -25.8999 32.5
    endloop
  endfacet
  facet normal 0.642786 0.766046 -0
    outer loop
      vertex -52.7 -26.2124 14
      vertex -53.0725 -25.8999 32.5
      vertex -52.7 -26.2124 32.5
    endloop
  endfacet
  facet normal 0.642786 0.766046 0
    outer loop
      vertex -53.0725 -25.8999 32.5
      vertex -52.7 -26.2124 14
      vertex -53.0725 -25.8999 14
    endloop
  endfacet
  facet normal 0.866029 0.499994 0
    outer loop
      vertex -53.0725 -25.8999 32.5
      vertex -53.3156 -25.4788 14
      vertex -53.3156 -25.4788 32.5
    endloop
  endfacet
  facet normal 0.866029 0.499994 0
    outer loop
      vertex -53.3156 -25.4788 14
      vertex -53.0725 -25.8999 32.5
      vertex -53.0725 -25.8999 14
    endloop
  endfacet
  facet normal -0.342021 0.939692 0
    outer loop
      vertex -51.3 -26.2124 14
      vertex -51.7569 -26.3787 32.5
      vertex -51.3 -26.2124 32.5
    endloop
  endfacet
  facet normal -0.342021 0.939692 0
    outer loop
      vertex -51.7569 -26.3787 32.5
      vertex -51.3 -26.2124 14
      vertex -51.7569 -26.3787 14
    endloop
  endfacet
  facet normal -0.642786 0.766046 0
    outer loop
      vertex -50.9275 -25.8999 14
      vertex -51.3 -26.2124 32.5
      vertex -50.9275 -25.8999 32.5
    endloop
  endfacet
  facet normal -0.642786 0.766046 0
    outer loop
      vertex -51.3 -26.2124 32.5
      vertex -50.9275 -25.8999 14
      vertex -51.3 -26.2124 14
    endloop
  endfacet
  facet normal -0.984808 0.173649 0
    outer loop
      vertex -50.6844 -25.4788 14
      vertex -50.6 -25 32.5
      vertex -50.6 -25 14
    endloop
  endfacet
  facet normal -0.984808 0.173649 0
    outer loop
      vertex -50.6 -25 32.5
      vertex -50.6844 -25.4788 14
      vertex -50.6844 -25.4788 32.5
    endloop
  endfacet
  facet normal 0 1 -0
    outer loop
      vertex -51.7569 -26.3787 14
      vertex -52.2431 -26.3787 32.5
      vertex -51.7569 -26.3787 32.5
    endloop
  endfacet
  facet normal 0 1 0
    outer loop
      vertex -52.2431 -26.3787 32.5
      vertex -51.7569 -26.3787 14
      vertex -52.2431 -26.3787 14
    endloop
  endfacet
  facet normal 0.342021 0.939692 -0
    outer loop
      vertex -52.2431 -26.3787 14
      vertex -52.7 -26.2124 32.5
      vertex -52.2431 -26.3787 32.5
    endloop
  endfacet
  facet normal 0.342021 0.939692 0
    outer loop
      vertex -52.7 -26.2124 32.5
      vertex -52.2431 -26.3787 14
      vertex -52.7 -26.2124 14
    endloop
  endfacet
  facet normal 0.996584 0.08258 0
    outer loop
      vertex -49 -17 32.5
      vertex -49.0409 -16.5062 14
      vertex -49.0409 -16.5062 32.5
    endloop
  endfacet
  facet normal 0.996584 0.08258 0
    outer loop
      vertex -49.0409 -16.5062 14
      vertex -49 -17 32.5
      vertex -49 -17 14
    endloop
  endfacet
  facet normal -0.996584 0.08258 0
    outer loop
      vertex -55 -17 14
      vertex -54.9591 -16.5062 32.5
      vertex -54.9591 -16.5062 14
    endloop
  endfacet
  facet normal -0.996584 0.08258 0
    outer loop
      vertex -54.9591 -16.5062 32.5
      vertex -55 -17 14
      vertex -55 -17 32.5
    endloop
  endfacet
  facet normal 0 1 -0
    outer loop
      vertex -51.7523 -14.0102 14
      vertex -52.2477 -14.0102 32.5
      vertex -51.7523 -14.0102 32.5
    endloop
  endfacet
  facet normal 0 1 0
    outer loop
      vertex -52.2477 -14.0102 32.5
      vertex -51.7523 -14.0102 14
      vertex -52.2477 -14.0102 14
    endloop
  endfacet
  facet normal 0 -1 0
    outer loop
      vertex -52.2477 -19.9898 14
      vertex -51.7523 -19.9898 32.5
      vertex -52.2477 -19.9898 32.5
    endloop
  endfacet
  facet normal 0 -1 -0
    outer loop
      vertex -51.7523 -19.9898 32.5
      vertex -52.2477 -19.9898 14
      vertex -51.7523 -19.9898 14
    endloop
  endfacet
  facet normal 0.735723 -0.677283 0
    outer loop
      vertex -49.9682 -19.2072 32.5
      vertex -49.6326 -18.8426 14
      vertex -49.6326 -18.8426 32.5
    endloop
  endfacet
  facet normal 0.735723 -0.677283 0
    outer loop
      vertex -49.6326 -18.8426 14
      vertex -49.9682 -19.2072 32.5
      vertex -49.9682 -19.2072 14
    endloop
  endfacet
  facet normal 0.614214 0.789139 -0
    outer loop
      vertex -49.9682 -14.7928 14
      vertex -50.3592 -14.4885 32.5
      vertex -49.9682 -14.7928 32.5
    endloop
  endfacet
  facet normal 0.614214 0.789139 0
    outer loop
      vertex -50.3592 -14.4885 32.5
      vertex -49.9682 -14.7928 14
      vertex -50.3592 -14.4885 14
    endloop
  endfacet
  facet normal -0.735725 0.67728 0
    outer loop
      vertex -54.3674 -15.1574 14
      vertex -54.0318 -14.7928 32.5
      vertex -54.0318 -14.7928 14
    endloop
  endfacet
  facet normal -0.735725 0.67728 0
    outer loop
      vertex -54.0318 -14.7928 32.5
      vertex -54.3674 -15.1574 14
      vertex -54.3674 -15.1574 32.5
    endloop
  endfacet
  facet normal -0.475944 0.879475 0
    outer loop
      vertex -53.2051 -14.2527 14
      vertex -53.6408 -14.4885 32.5
      vertex -53.2051 -14.2527 32.5
    endloop
  endfacet
  facet normal -0.475944 0.879475 0
    outer loop
      vertex -53.6408 -14.4885 32.5
      vertex -53.2051 -14.2527 14
      vertex -53.6408 -14.4885 14
    endloop
  endfacet
  facet normal 0.83717 -0.546942 0
    outer loop
      vertex -49.6326 -18.8426 32.5
      vertex -49.3616 -18.4278 14
      vertex -49.3616 -18.4278 32.5
    endloop
  endfacet
  facet normal 0.83717 -0.546942 0
    outer loop
      vertex -49.3616 -18.4278 14
      vertex -49.6326 -18.8426 32.5
      vertex -49.6326 -18.8426 14
    endloop
  endfacet
  facet normal 0.915773 0.401697 0
    outer loop
      vertex -49.1625 -16.0259 32.5
      vertex -49.3616 -15.5722 14
      vertex -49.3616 -15.5722 32.5
    endloop
  endfacet
  facet normal 0.915773 0.401697 0
    outer loop
      vertex -49.3616 -15.5722 14
      vertex -49.1625 -16.0259 32.5
      vertex -49.1625 -16.0259 14
    endloop
  endfacet
  facet normal 0.9694 0.245485 0
    outer loop
      vertex -49.0409 -16.5062 32.5
      vertex -49.1625 -16.0259 14
      vertex -49.1625 -16.0259 32.5
    endloop
  endfacet
  facet normal 0.9694 0.245485 0
    outer loop
      vertex -49.1625 -16.0259 14
      vertex -49.0409 -16.5062 32.5
      vertex -49.0409 -16.5062 14
    endloop
  endfacet
  facet normal 0.83717 0.546943 0
    outer loop
      vertex -49.3616 -15.5722 32.5
      vertex -49.6326 -15.1574 14
      vertex -49.6326 -15.1574 32.5
    endloop
  endfacet
  facet normal 0.83717 0.546943 0
    outer loop
      vertex -49.6326 -15.1574 14
      vertex -49.3616 -15.5722 32.5
      vertex -49.3616 -15.5722 14
    endloop
  endfacet
  facet normal 0.324701 0.945817 -0
    outer loop
      vertex -50.7949 -14.2527 14
      vertex -51.2635 -14.0918 32.5
      vertex -50.7949 -14.2527 32.5
    endloop
  endfacet
  facet normal 0.324701 0.945817 0
    outer loop
      vertex -51.2635 -14.0918 32.5
      vertex -50.7949 -14.2527 14
      vertex -51.2635 -14.0918 14
    endloop
  endfacet
  facet normal 0.164594 0.986361 -0
    outer loop
      vertex -51.2635 -14.0918 14
      vertex -51.7523 -14.0102 32.5
      vertex -51.2635 -14.0918 32.5
    endloop
  endfacet
  facet normal 0.164594 0.986361 0
    outer loop
      vertex -51.7523 -14.0102 32.5
      vertex -51.2635 -14.0918 14
      vertex -51.7523 -14.0102 14
    endloop
  endfacet
  facet normal 0.475944 0.879475 -0
    outer loop
      vertex -50.3592 -14.4885 14
      vertex -50.7949 -14.2527 32.5
      vertex -50.3592 -14.4885 32.5
    endloop
  endfacet
  facet normal 0.475944 0.879475 0
    outer loop
      vertex -50.7949 -14.2527 32.5
      vertex -50.3592 -14.4885 14
      vertex -50.7949 -14.2527 14
    endloop
  endfacet
  facet normal -0.915773 0.401697 0
    outer loop
      vertex -54.8375 -16.0259 14
      vertex -54.6384 -15.5722 32.5
      vertex -54.6384 -15.5722 14
    endloop
  endfacet
  facet normal -0.915773 0.401697 0
    outer loop
      vertex -54.6384 -15.5722 32.5
      vertex -54.8375 -16.0259 14
      vertex -54.8375 -16.0259 32.5
    endloop
  endfacet
  facet normal -0.837166 0.546948 0
    outer loop
      vertex -54.6384 -15.5722 14
      vertex -54.3674 -15.1574 32.5
      vertex -54.3674 -15.1574 14
    endloop
  endfacet
  facet normal -0.837166 0.546948 0
    outer loop
      vertex -54.3674 -15.1574 32.5
      vertex -54.6384 -15.5722 14
      vertex -54.6384 -15.5722 32.5
    endloop
  endfacet
  facet normal -0.9694 0.245485 0
    outer loop
      vertex -54.9591 -16.5062 14
      vertex -54.8375 -16.0259 32.5
      vertex -54.8375 -16.0259 14
    endloop
  endfacet
  facet normal -0.9694 0.245485 0
    outer loop
      vertex -54.8375 -16.0259 32.5
      vertex -54.9591 -16.5062 14
      vertex -54.9591 -16.5062 32.5
    endloop
  endfacet
  facet normal 0 0 1
    outer loop
      vertex -50.6 -17 32.5
      vertex -49 -17 32.5
      vertex -49.0409 -16.5062 32.5
    endloop
  endfacet
  facet normal 0 0 1
    outer loop
      vertex -50.6844 -16.5212 32.5
      vertex -49.0409 -16.5062 32.5
      vertex -49.1625 -16.0259 32.5
    endloop
  endfacet
  facet normal 0 0 1
    outer loop
      vertex -49 -17 32.5
      vertex -50.6 -17 32.5
      vertex -49.0409 -17.4938 32.5
    endloop
  endfacet
  facet normal 0 0 1
    outer loop
      vertex -50.6844 -16.5212 32.5
      vertex -49.1625 -16.0259 32.5
      vertex -49.3616 -15.5722 32.5
    endloop
  endfacet
  facet normal -0 0 1
    outer loop
      vertex -50.6844 -17.4788 32.5
      vertex -49.0409 -17.4938 32.5
      vertex -50.6 -17 32.5
    endloop
  endfacet
  facet normal 0 0 1
    outer loop
      vertex -50.9275 -16.1001 32.5
      vertex -49.3616 -15.5722 32.5
      vertex -49.6326 -15.1574 32.5
    endloop
  endfacet
  facet normal 0 0 1
    outer loop
      vertex -49.0409 -17.4938 32.5
      vertex -50.6844 -17.4788 32.5
      vertex -49.1625 -17.9741 32.5
    endloop
  endfacet
  facet normal 0 0 1
    outer loop
      vertex -50.9275 -16.1001 32.5
      vertex -49.6326 -15.1574 32.5
      vertex -49.9682 -14.7928 32.5
    endloop
  endfacet
  facet normal 0 0 1
    outer loop
      vertex -49.1625 -17.9741 32.5
      vertex -50.6844 -17.4788 32.5
      vertex -49.3616 -18.4278 32.5
    endloop
  endfacet
  facet normal 0 0 1
    outer loop
      vertex -51.3 -15.7876 32.5
      vertex -49.9682 -14.7928 32.5
      vertex -50.3592 -14.4885 32.5
    endloop
  endfacet
  facet normal -0 0 1
    outer loop
      vertex -50.9275 -17.8999 32.5
      vertex -49.3616 -18.4278 32.5
      vertex -50.6844 -17.4788 32.5
    endloop
  endfacet
  facet normal 0 0 1
    outer loop
      vertex -49.3616 -18.4278 32.5
      vertex -50.9275 -17.8999 32.5
      vertex -49.6326 -18.8426 32.5
    endloop
  endfacet
  facet normal 0 0 1
    outer loop
      vertex -49.0409 -16.5062 32.5
      vertex -50.6844 -16.5212 32.5
      vertex -50.6 -17 32.5
    endloop
  endfacet
  facet normal 0 0 1
    outer loop
      vertex -51.3 -15.7876 32.5
      vertex -50.3592 -14.4885 32.5
      vertex -50.7949 -14.2527 32.5
    endloop
  endfacet
  facet normal 0 0 1
    outer loop
      vertex -49.3616 -15.5722 32.5
      vertex -50.9275 -16.1001 32.5
      vertex -50.6844 -16.5212 32.5
    endloop
  endfacet
  facet normal 0 0 1
    outer loop
      vertex -51.7569 -15.6213 32.5
      vertex -50.7949 -14.2527 32.5
      vertex -51.2635 -14.0918 32.5
    endloop
  endfacet
  facet normal 0 0 1
    outer loop
      vertex -49.9682 -14.7928 32.5
      vertex -51.3 -15.7876 32.5
      vertex -50.9275 -16.1001 32.5
    endloop
  endfacet
  facet normal 0 0 1
    outer loop
      vertex -51.7569 -15.6213 32.5
      vertex -51.2635 -14.0918 32.5
      vertex -51.7523 -14.0102 32.5
    endloop
  endfacet
  facet normal 0 0 1
    outer loop
      vertex -50.7949 -14.2527 32.5
      vertex -51.7569 -15.6213 32.5
      vertex -51.3 -15.7876 32.5
    endloop
  endfacet
  facet normal 0 0 1
    outer loop
      vertex -51.7523 -14.0102 32.5
      vertex -52.2431 -15.6213 32.5
      vertex -51.7569 -15.6213 32.5
    endloop
  endfacet
  facet normal -0 0 1
    outer loop
      vertex -52.2477 -14.0102 32.5
      vertex -52.2431 -15.6213 32.5
      vertex -51.7523 -14.0102 32.5
    endloop
  endfacet
  facet normal -0 0 1
    outer loop
      vertex -52.7365 -14.0918 32.5
      vertex -52.2431 -15.6213 32.5
      vertex -52.2477 -14.0102 32.5
    endloop
  endfacet
  facet normal -0 0 1
    outer loop
      vertex -53.2051 -14.2527 32.5
      vertex -52.2431 -15.6213 32.5
      vertex -52.7365 -14.0918 32.5
    endloop
  endfacet
  facet normal 0 0 1
    outer loop
      vertex -52.2431 -15.6213 32.5
      vertex -53.2051 -14.2527 32.5
      vertex -52.7 -15.7876 32.5
    endloop
  endfacet
  facet normal -0 0 1
    outer loop
      vertex -53.6408 -14.4885 32.5
      vertex -52.7 -15.7876 32.5
      vertex -53.2051 -14.2527 32.5
    endloop
  endfacet
  facet normal -0 0 1
    outer loop
      vertex -54.0318 -14.7928 32.5
      vertex -52.7 -15.7876 32.5
      vertex -53.6408 -14.4885 32.5
    endloop
  endfacet
  facet normal 0 0 1
    outer loop
      vertex -52.7 -15.7876 32.5
      vertex -54.0318 -14.7928 32.5
      vertex -53.0725 -16.1001 32.5
    endloop
  endfacet
  facet normal -0 0 1
    outer loop
      vertex -54.3674 -15.1574 32.5
      vertex -53.0725 -16.1001 32.5
      vertex -54.0318 -14.7928 32.5
    endloop
  endfacet
  facet normal 0 0 1
    outer loop
      vertex -49.6326 -18.8426 32.5
      vertex -50.9275 -17.8999 32.5
      vertex -49.9682 -19.2072 32.5
    endloop
  endfacet
  facet normal -0 0 1
    outer loop
      vertex -51.3 -18.2124 32.5
      vertex -49.9682 -19.2072 32.5
      vertex -50.9275 -17.8999 32.5
    endloop
  endfacet
  facet normal 0 0 1
    outer loop
      vertex -49.9682 -19.2072 32.5
      vertex -51.3 -18.2124 32.5
      vertex -50.3592 -19.5115 32.5
    endloop
  endfacet
  facet normal 0 0 1
    outer loop
      vertex -50.3592 -19.5115 32.5
      vertex -51.3 -18.2124 32.5
      vertex -50.7949 -19.7473 32.5
    endloop
  endfacet
  facet normal -0 0 1
    outer loop
      vertex -51.7569 -18.3787 32.5
      vertex -50.7949 -19.7473 32.5
      vertex -51.3 -18.2124 32.5
    endloop
  endfacet
  facet normal 0 0 1
    outer loop
      vertex -50.7949 -19.7473 32.5
      vertex -51.7569 -18.3787 32.5
      vertex -51.2635 -19.9082 32.5
    endloop
  endfacet
  facet normal 0 0 1
    outer loop
      vertex -51.2635 -19.9082 32.5
      vertex -51.7569 -18.3787 32.5
      vertex -51.7523 -19.9898 32.5
    endloop
  endfacet
  facet normal -0 0 1
    outer loop
      vertex -52.2431 -18.3787 32.5
      vertex -51.7523 -19.9898 32.5
      vertex -51.7569 -18.3787 32.5
    endloop
  endfacet
  facet normal 0 0 1
    outer loop
      vertex -52.2431 -18.3787 32.5
      vertex -52.2477 -19.9898 32.5
      vertex -51.7523 -19.9898 32.5
    endloop
  endfacet
  facet normal 0 0 1
    outer loop
      vertex -53.2051 -19.7473 32.5
      vertex -52.2431 -18.3787 32.5
      vertex -52.7 -18.2124 32.5
    endloop
  endfacet
  facet normal 0 0 1
    outer loop
      vertex -52.2431 -18.3787 32.5
      vertex -52.7365 -19.9082 32.5
      vertex -52.2477 -19.9898 32.5
    endloop
  endfacet
  facet normal 0 0 1
    outer loop
      vertex -54.0318 -19.2072 32.5
      vertex -52.7 -18.2124 32.5
      vertex -53.0725 -17.8999 32.5
    endloop
  endfacet
  facet normal 0 0 1
    outer loop
      vertex -52.2431 -18.3787 32.5
      vertex -53.2051 -19.7473 32.5
      vertex -52.7365 -19.9082 32.5
    endloop
  endfacet
  facet normal 0 0 1
    outer loop
      vertex -54.6384 -18.4278 32.5
      vertex -53.0725 -17.8999 32.5
      vertex -53.3156 -17.4788 32.5
    endloop
  endfacet
  facet normal 0 0 1
    outer loop
      vertex -54.9591 -17.4938 32.5
      vertex -53.3156 -17.4788 32.5
      vertex -53.4 -17 32.5
    endloop
  endfacet
  facet normal -0 0 1
    outer loop
      vertex -54.6384 -15.5722 32.5
      vertex -53.0725 -16.1001 32.5
      vertex -54.3674 -15.1574 32.5
    endloop
  endfacet
  facet normal 0 0 1
    outer loop
      vertex -52.7 -18.2124 32.5
      vertex -53.6408 -19.5115 32.5
      vertex -53.2051 -19.7473 32.5
    endloop
  endfacet
  facet normal 0 0 1
    outer loop
      vertex -53.0725 -16.1001 32.5
      vertex -54.6384 -15.5722 32.5
      vertex -53.3156 -16.5212 32.5
    endloop
  endfacet
  facet normal 0 0 1
    outer loop
      vertex -52.7 -18.2124 32.5
      vertex -54.0318 -19.2072 32.5
      vertex -53.6408 -19.5115 32.5
    endloop
  endfacet
  facet normal -0 0 1
    outer loop
      vertex -54.8375 -16.0259 32.5
      vertex -53.3156 -16.5212 32.5
      vertex -54.6384 -15.5722 32.5
    endloop
  endfacet
  facet normal 0 0 1
    outer loop
      vertex -53.0725 -17.8999 32.5
      vertex -54.3674 -18.8426 32.5
      vertex -54.0318 -19.2072 32.5
    endloop
  endfacet
  facet normal -0 0 1
    outer loop
      vertex -54.9591 -16.5062 32.5
      vertex -53.3156 -16.5212 32.5
      vertex -54.8375 -16.0259 32.5
    endloop
  endfacet
  facet normal 0 0 1
    outer loop
      vertex -53.0725 -17.8999 32.5
      vertex -54.6384 -18.4278 32.5
      vertex -54.3674 -18.8426 32.5
    endloop
  endfacet
  facet normal 0 0 1
    outer loop
      vertex -53.3156 -16.5212 32.5
      vertex -54.9591 -16.5062 32.5
      vertex -53.4 -17 32.5
    endloop
  endfacet
  facet normal 0 0 1
    outer loop
      vertex -53.3156 -17.4788 32.5
      vertex -54.8375 -17.9741 32.5
      vertex -54.6384 -18.4278 32.5
    endloop
  endfacet
  facet normal 0 0 1
    outer loop
      vertex -55 -17 32.5
      vertex -53.4 -17 32.5
      vertex -54.9591 -16.5062 32.5
    endloop
  endfacet
  facet normal 0 0 1
    outer loop
      vertex -53.3156 -17.4788 32.5
      vertex -54.9591 -17.4938 32.5
      vertex -54.8375 -17.9741 32.5
    endloop
  endfacet
  facet normal 0 0 1
    outer loop
      vertex -53.4 -17 32.5
      vertex -55 -17 32.5
      vertex -54.9591 -17.4938 32.5
    endloop
  endfacet
  facet normal -0.614214 0.789139 0
    outer loop
      vertex -53.6408 -14.4885 14
      vertex -54.0318 -14.7928 32.5
      vertex -53.6408 -14.4885 32.5
    endloop
  endfacet
  facet normal -0.614214 0.789139 0
    outer loop
      vertex -54.0318 -14.7928 32.5
      vertex -53.6408 -14.4885 14
      vertex -54.0318 -14.7928 14
    endloop
  endfacet
  facet normal -0.164594 0.986361 0
    outer loop
      vertex -52.2477 -14.0102 14
      vertex -52.7365 -14.0918 32.5
      vertex -52.2477 -14.0102 32.5
    endloop
  endfacet
  facet normal -0.164594 0.986361 0
    outer loop
      vertex -52.7365 -14.0918 32.5
      vertex -52.2477 -14.0102 14
      vertex -52.7365 -14.0918 14
    endloop
  endfacet
  facet normal 0.996584 -0.0825803 0
    outer loop
      vertex -49.0409 -17.4938 32.5
      vertex -49 -17 14
      vertex -49 -17 32.5
    endloop
  endfacet
  facet normal 0.996584 -0.0825803 0
    outer loop
      vertex -49 -17 14
      vertex -49.0409 -17.4938 32.5
      vertex -49.0409 -17.4938 14
    endloop
  endfacet
  facet normal 0 0 -1
    outer loop
      vertex -50.6 -17 14
      vertex -49 -17 14
      vertex -49.0409 -17.4938 14
    endloop
  endfacet
  facet normal 0 0 -1
    outer loop
      vertex -50.6844 -17.4788 14
      vertex -49.0409 -17.4938 14
      vertex -49.1625 -17.9741 14
    endloop
  endfacet
  facet normal 0 0 -1
    outer loop
      vertex -49 -17 14
      vertex -50.6 -17 14
      vertex -49.0409 -16.5062 14
    endloop
  endfacet
  facet normal 0 0 -1
    outer loop
      vertex -50.6844 -17.4788 14
      vertex -49.1625 -17.9741 14
      vertex -49.3616 -18.4278 14
    endloop
  endfacet
  facet normal 0 0 -1
    outer loop
      vertex -50.6844 -16.5212 14
      vertex -49.0409 -16.5062 14
      vertex -50.6 -17 14
    endloop
  endfacet
  facet normal 0 0 -1
    outer loop
      vertex -50.9275 -17.8999 14
      vertex -49.3616 -18.4278 14
      vertex -49.6326 -18.8426 14
    endloop
  endfacet
  facet normal -0 0 -1
    outer loop
      vertex -49.0409 -16.5062 14
      vertex -50.6844 -16.5212 14
      vertex -49.1625 -16.0259 14
    endloop
  endfacet
  facet normal 0 0 -1
    outer loop
      vertex -50.9275 -17.8999 14
      vertex -49.6326 -18.8426 14
      vertex -49.9682 -19.2072 14
    endloop
  endfacet
  facet normal -0 0 -1
    outer loop
      vertex -49.1625 -16.0259 14
      vertex -50.6844 -16.5212 14
      vertex -49.3616 -15.5722 14
    endloop
  endfacet
  facet normal 0 0 -1
    outer loop
      vertex -51.3 -18.2124 14
      vertex -49.9682 -19.2072 14
      vertex -50.3592 -19.5115 14
    endloop
  endfacet
  facet normal 0 0 -1
    outer loop
      vertex -50.9275 -16.1001 14
      vertex -49.3616 -15.5722 14
      vertex -50.6844 -16.5212 14
    endloop
  endfacet
  facet normal -0 0 -1
    outer loop
      vertex -49.3616 -15.5722 14
      vertex -50.9275 -16.1001 14
      vertex -49.6326 -15.1574 14
    endloop
  endfacet
  facet normal 0 0 -1
    outer loop
      vertex -49.0409 -17.4938 14
      vertex -50.6844 -17.4788 14
      vertex -50.6 -17 14
    endloop
  endfacet
  facet normal 0 0 -1
    outer loop
      vertex -51.3 -18.2124 14
      vertex -50.3592 -19.5115 14
      vertex -50.7949 -19.7473 14
    endloop
  endfacet
  facet normal 0 0 -1
    outer loop
      vertex -49.3616 -18.4278 14
      vertex -50.9275 -17.8999 14
      vertex -50.6844 -17.4788 14
    endloop
  endfacet
  facet normal 0 0 -1
    outer loop
      vertex -51.7569 -18.3787 14
      vertex -50.7949 -19.7473 14
      vertex -51.2635 -19.9082 14
    endloop
  endfacet
  facet normal 0 0 -1
    outer loop
      vertex -49.9682 -19.2072 14
      vertex -51.3 -18.2124 14
      vertex -50.9275 -17.8999 14
    endloop
  endfacet
  facet normal 0 0 -1
    outer loop
      vertex -51.7569 -18.3787 14
      vertex -51.2635 -19.9082 14
      vertex -51.7523 -19.9898 14
    endloop
  endfacet
  facet normal 0 0 -1
    outer loop
      vertex -50.7949 -19.7473 14
      vertex -51.7569 -18.3787 14
      vertex -51.3 -18.2124 14
    endloop
  endfacet
  facet normal 0 0 -1
    outer loop
      vertex -51.7523 -19.9898 14
      vertex -52.2431 -18.3787 14
      vertex -51.7569 -18.3787 14
    endloop
  endfacet
  facet normal 0 0 -1
    outer loop
      vertex -52.2477 -19.9898 14
      vertex -52.2431 -18.3787 14
      vertex -51.7523 -19.9898 14
    endloop
  endfacet
  facet normal 0 0 -1
    outer loop
      vertex -52.7365 -19.9082 14
      vertex -52.2431 -18.3787 14
      vertex -52.2477 -19.9898 14
    endloop
  endfacet
  facet normal 0 0 -1
    outer loop
      vertex -53.2051 -19.7473 14
      vertex -52.2431 -18.3787 14
      vertex -52.7365 -19.9082 14
    endloop
  endfacet
  facet normal -0 0 -1
    outer loop
      vertex -52.2431 -18.3787 14
      vertex -53.2051 -19.7473 14
      vertex -52.7 -18.2124 14
    endloop
  endfacet
  facet normal 0 0 -1
    outer loop
      vertex -53.6408 -19.5115 14
      vertex -52.7 -18.2124 14
      vertex -53.2051 -19.7473 14
    endloop
  endfacet
  facet normal 0 0 -1
    outer loop
      vertex -54.0318 -19.2072 14
      vertex -52.7 -18.2124 14
      vertex -53.6408 -19.5115 14
    endloop
  endfacet
  facet normal -0 0 -1
    outer loop
      vertex -52.7 -18.2124 14
      vertex -54.0318 -19.2072 14
      vertex -53.0725 -17.8999 14
    endloop
  endfacet
  facet normal 0 0 -1
    outer loop
      vertex -54.3674 -18.8426 14
      vertex -53.0725 -17.8999 14
      vertex -54.0318 -19.2072 14
    endloop
  endfacet
  facet normal -0 0 -1
    outer loop
      vertex -49.6326 -15.1574 14
      vertex -50.9275 -16.1001 14
      vertex -49.9682 -14.7928 14
    endloop
  endfacet
  facet normal 0 0 -1
    outer loop
      vertex -51.3 -15.7876 14
      vertex -49.9682 -14.7928 14
      vertex -50.9275 -16.1001 14
    endloop
  endfacet
  facet normal -0 0 -1
    outer loop
      vertex -49.9682 -14.7928 14
      vertex -51.3 -15.7876 14
      vertex -50.3592 -14.4885 14
    endloop
  endfacet
  facet normal -0 0 -1
    outer loop
      vertex -50.3592 -14.4885 14
      vertex -51.3 -15.7876 14
      vertex -50.7949 -14.2527 14
    endloop
  endfacet
  facet normal 0 0 -1
    outer loop
      vertex -51.7569 -15.6213 14
      vertex -50.7949 -14.2527 14
      vertex -51.3 -15.7876 14
    endloop
  endfacet
  facet normal -0 0 -1
    outer loop
      vertex -50.7949 -14.2527 14
      vertex -51.7569 -15.6213 14
      vertex -51.2635 -14.0918 14
    endloop
  endfacet
  facet normal -0 0 -1
    outer loop
      vertex -51.2635 -14.0918 14
      vertex -51.7569 -15.6213 14
      vertex -51.7523 -14.0102 14
    endloop
  endfacet
  facet normal 0 0 -1
    outer loop
      vertex -52.2431 -15.6213 14
      vertex -51.7523 -14.0102 14
      vertex -51.7569 -15.6213 14
    endloop
  endfacet
  facet normal 0 0 -1
    outer loop
      vertex -52.2431 -15.6213 14
      vertex -52.2477 -14.0102 14
      vertex -51.7523 -14.0102 14
    endloop
  endfacet
  facet normal 0 0 -1
    outer loop
      vertex -53.2051 -14.2527 14
      vertex -52.2431 -15.6213 14
      vertex -52.7 -15.7876 14
    endloop
  endfacet
  facet normal 0 0 -1
    outer loop
      vertex -52.2431 -15.6213 14
      vertex -52.7365 -14.0918 14
      vertex -52.2477 -14.0102 14
    endloop
  endfacet
  facet normal 0 0 -1
    outer loop
      vertex -54.0318 -14.7928 14
      vertex -52.7 -15.7876 14
      vertex -53.0725 -16.1001 14
    endloop
  endfacet
  facet normal 0 0 -1
    outer loop
      vertex -52.2431 -15.6213 14
      vertex -53.2051 -14.2527 14
      vertex -52.7365 -14.0918 14
    endloop
  endfacet
  facet normal 0 0 -1
    outer loop
      vertex -54.6384 -15.5722 14
      vertex -53.0725 -16.1001 14
      vertex -53.3156 -16.5212 14
    endloop
  endfacet
  facet normal 0 0 -1
    outer loop
      vertex -54.9591 -16.5062 14
      vertex -53.3156 -16.5212 14
      vertex -53.4 -17 14
    endloop
  endfacet
  facet normal 0 0 -1
    outer loop
      vertex -54.6384 -18.4278 14
      vertex -53.0725 -17.8999 14
      vertex -54.3674 -18.8426 14
    endloop
  endfacet
  facet normal 0 0 -1
    outer loop
      vertex -52.7 -15.7876 14
      vertex -53.6408 -14.4885 14
      vertex -53.2051 -14.2527 14
    endloop
  endfacet
  facet normal -0 0 -1
    outer loop
      vertex -53.0725 -17.8999 14
      vertex -54.6384 -18.4278 14
      vertex -53.3156 -17.4788 14
    endloop
  endfacet
  facet normal 0 0 -1
    outer loop
      vertex -52.7 -15.7876 14
      vertex -54.0318 -14.7928 14
      vertex -53.6408 -14.4885 14
    endloop
  endfacet
  facet normal 0 0 -1
    outer loop
      vertex -54.8375 -17.9741 14
      vertex -53.3156 -17.4788 14
      vertex -54.6384 -18.4278 14
    endloop
  endfacet
  facet normal 0 0 -1
    outer loop
      vertex -53.0725 -16.1001 14
      vertex -54.3674 -15.1574 14
      vertex -54.0318 -14.7928 14
    endloop
  endfacet
  facet normal 0 0 -1
    outer loop
      vertex -54.9591 -17.4938 14
      vertex -53.3156 -17.4788 14
      vertex -54.8375 -17.9741 14
    endloop
  endfacet
  facet normal 0 0 -1
    outer loop
      vertex -53.0725 -16.1001 14
      vertex -54.6384 -15.5722 14
      vertex -54.3674 -15.1574 14
    endloop
  endfacet
  facet normal -0 0 -1
    outer loop
      vertex -53.3156 -17.4788 14
      vertex -54.9591 -17.4938 14
      vertex -53.4 -17 14
    endloop
  endfacet
  facet normal 0 0 -1
    outer loop
      vertex -53.3156 -16.5212 14
      vertex -54.8375 -16.0259 14
      vertex -54.6384 -15.5722 14
    endloop
  endfacet
  facet normal 0 0 -1
    outer loop
      vertex -55 -17 14
      vertex -53.4 -17 14
      vertex -54.9591 -17.4938 14
    endloop
  endfacet
  facet normal 0 0 -1
    outer loop
      vertex -53.3156 -16.5212 14
      vertex -54.9591 -16.5062 14
      vertex -54.8375 -16.0259 14
    endloop
  endfacet
  facet normal 0 0 -1
    outer loop
      vertex -53.4 -17 14
      vertex -55 -17 14
      vertex -54.9591 -16.5062 14
    endloop
  endfacet
  facet normal 0.735722 0.677284 0
    outer loop
      vertex -49.6326 -15.1574 32.5
      vertex -49.9682 -14.7928 14
      vertex -49.9682 -14.7928 32.5
    endloop
  endfacet
  facet normal 0.735722 0.677284 0
    outer loop
      vertex -49.9682 -14.7928 14
      vertex -49.6326 -15.1574 32.5
      vertex -49.6326 -15.1574 14
    endloop
  endfacet
  facet normal 0.969401 -0.245484 0
    outer loop
      vertex -49.1625 -17.9741 32.5
      vertex -49.0409 -17.4938 14
      vertex -49.0409 -17.4938 32.5
    endloop
  endfacet
  facet normal 0.969401 -0.245484 0
    outer loop
      vertex -49.0409 -17.4938 14
      vertex -49.1625 -17.9741 32.5
      vertex -49.1625 -17.9741 14
    endloop
  endfacet
  facet normal -0.837167 -0.546948 0
    outer loop
      vertex -54.3674 -18.8426 14
      vertex -54.6384 -18.4278 32.5
      vertex -54.6384 -18.4278 14
    endloop
  endfacet
  facet normal -0.837167 -0.546948 0
    outer loop
      vertex -54.6384 -18.4278 32.5
      vertex -54.3674 -18.8426 14
      vertex -54.3674 -18.8426 32.5
    endloop
  endfacet
  facet normal -0.915772 -0.401698 0
    outer loop
      vertex -54.6384 -18.4278 14
      vertex -54.8375 -17.9741 32.5
      vertex -54.8375 -17.9741 14
    endloop
  endfacet
  facet normal -0.915772 -0.401698 0
    outer loop
      vertex -54.8375 -17.9741 32.5
      vertex -54.6384 -18.4278 14
      vertex -54.6384 -18.4278 32.5
    endloop
  endfacet
  facet normal 0.614213 -0.78914 0
    outer loop
      vertex -50.3592 -19.5115 14
      vertex -49.9682 -19.2072 32.5
      vertex -50.3592 -19.5115 32.5
    endloop
  endfacet
  facet normal 0.614213 -0.78914 0
    outer loop
      vertex -49.9682 -19.2072 32.5
      vertex -50.3592 -19.5115 14
      vertex -49.9682 -19.2072 14
    endloop
  endfacet
  facet normal 0.475943 -0.879476 0
    outer loop
      vertex -50.7949 -19.7473 14
      vertex -50.3592 -19.5115 32.5
      vertex -50.7949 -19.7473 32.5
    endloop
  endfacet
  facet normal 0.475943 -0.879476 0
    outer loop
      vertex -50.3592 -19.5115 32.5
      vertex -50.7949 -19.7473 14
      vertex -50.3592 -19.5115 14
    endloop
  endfacet
  facet normal -0.324701 0.945817 0
    outer loop
      vertex -52.7365 -14.0918 14
      vertex -53.2051 -14.2527 32.5
      vertex -52.7365 -14.0918 32.5
    endloop
  endfacet
  facet normal -0.324701 0.945817 0
    outer loop
      vertex -53.2051 -14.2527 32.5
      vertex -52.7365 -14.0918 14
      vertex -53.2051 -14.2527 14
    endloop
  endfacet
  facet normal 0.915772 -0.401698 0
    outer loop
      vertex -49.3616 -18.4278 32.5
      vertex -49.1625 -17.9741 14
      vertex -49.1625 -17.9741 32.5
    endloop
  endfacet
  facet normal 0.915772 -0.401698 0
    outer loop
      vertex -49.1625 -17.9741 14
      vertex -49.3616 -18.4278 32.5
      vertex -49.3616 -18.4278 14
    endloop
  endfacet
  facet normal -0.164597 -0.986361 0
    outer loop
      vertex -52.7365 -19.9082 14
      vertex -52.2477 -19.9898 32.5
      vertex -52.7365 -19.9082 32.5
    endloop
  endfacet
  facet normal -0.164597 -0.986361 -0
    outer loop
      vertex -52.2477 -19.9898 32.5
      vertex -52.7365 -19.9082 14
      vertex -52.2477 -19.9898 14
    endloop
  endfacet
  facet normal -0.735726 -0.677279 0
    outer loop
      vertex -54.0318 -19.2072 14
      vertex -54.3674 -18.8426 32.5
      vertex -54.3674 -18.8426 14
    endloop
  endfacet
  facet normal -0.735726 -0.677279 0
    outer loop
      vertex -54.3674 -18.8426 32.5
      vertex -54.0318 -19.2072 14
      vertex -54.0318 -19.2072 32.5
    endloop
  endfacet
  facet normal -0.969401 -0.245484 0
    outer loop
      vertex -54.8375 -17.9741 14
      vertex -54.9591 -17.4938 32.5
      vertex -54.9591 -17.4938 14
    endloop
  endfacet
  facet normal -0.969401 -0.245484 0
    outer loop
      vertex -54.9591 -17.4938 32.5
      vertex -54.8375 -17.9741 14
      vertex -54.8375 -17.9741 32.5
    endloop
  endfacet
  facet normal -0.996584 -0.0825803 0
    outer loop
      vertex -54.9591 -17.4938 14
      vertex -55 -17 32.5
      vertex -55 -17 14
    endloop
  endfacet
  facet normal -0.996584 -0.0825803 0
    outer loop
      vertex -55 -17 32.5
      vertex -54.9591 -17.4938 14
      vertex -54.9591 -17.4938 32.5
    endloop
  endfacet
  facet normal 0.324701 -0.945817 0
    outer loop
      vertex -51.2635 -19.9082 14
      vertex -50.7949 -19.7473 32.5
      vertex -51.2635 -19.9082 32.5
    endloop
  endfacet
  facet normal 0.324701 -0.945817 0
    outer loop
      vertex -50.7949 -19.7473 32.5
      vertex -51.2635 -19.9082 14
      vertex -50.7949 -19.7473 14
    endloop
  endfacet
  facet normal 0.164597 -0.986361 0
    outer loop
      vertex -51.7523 -19.9898 14
      vertex -51.2635 -19.9082 32.5
      vertex -51.7523 -19.9898 32.5
    endloop
  endfacet
  facet normal 0.164597 -0.986361 0
    outer loop
      vertex -51.2635 -19.9082 32.5
      vertex -51.7523 -19.9898 14
      vertex -51.2635 -19.9082 14
    endloop
  endfacet
  facet normal -0.614213 -0.78914 0
    outer loop
      vertex -54.0318 -19.2072 14
      vertex -53.6408 -19.5115 32.5
      vertex -54.0318 -19.2072 32.5
    endloop
  endfacet
  facet normal -0.614213 -0.78914 -0
    outer loop
      vertex -53.6408 -19.5115 32.5
      vertex -54.0318 -19.2072 14
      vertex -53.6408 -19.5115 14
    endloop
  endfacet
  facet normal -0.475943 -0.879476 0
    outer loop
      vertex -53.6408 -19.5115 14
      vertex -53.2051 -19.7473 32.5
      vertex -53.6408 -19.5115 32.5
    endloop
  endfacet
  facet normal -0.475943 -0.879476 -0
    outer loop
      vertex -53.2051 -19.7473 32.5
      vertex -53.6408 -19.5115 14
      vertex -53.2051 -19.7473 14
    endloop
  endfacet
  facet normal -0.324701 -0.945817 0
    outer loop
      vertex -53.2051 -19.7473 14
      vertex -52.7365 -19.9082 32.5
      vertex -53.2051 -19.7473 32.5
    endloop
  endfacet
  facet normal -0.324701 -0.945817 -0
    outer loop
      vertex -52.7365 -19.9082 32.5
      vertex -53.2051 -19.7473 14
      vertex -52.7365 -19.9082 14
    endloop
  endfacet
  facet normal -0.984808 -0.173649 0
    outer loop
      vertex -50.6 -17 14
      vertex -50.6844 -16.5212 32.5
      vertex -50.6844 -16.5212 14
    endloop
  endfacet
  facet normal -0.984808 -0.173649 0
    outer loop
      vertex -50.6844 -16.5212 32.5
      vertex -50.6 -17 14
      vertex -50.6 -17 32.5
    endloop
  endfacet
  facet normal 0.984806 -0.173656 0
    outer loop
      vertex -53.4 -17 32.5
      vertex -53.3156 -16.5212 14
      vertex -53.3156 -16.5212 32.5
    endloop
  endfacet
  facet normal 0.984806 -0.173656 0
    outer loop
      vertex -53.3156 -16.5212 14
      vertex -53.4 -17 32.5
      vertex -53.4 -17 14
    endloop
  endfacet
  facet normal 0.984806 0.173656 0
    outer loop
      vertex -53.3156 -17.4788 32.5
      vertex -53.4 -17 14
      vertex -53.4 -17 32.5
    endloop
  endfacet
  facet normal 0.984806 0.173656 0
    outer loop
      vertex -53.4 -17 14
      vertex -53.3156 -17.4788 32.5
      vertex -53.3156 -17.4788 14
    endloop
  endfacet
  facet normal 0 -1 0
    outer loop
      vertex -52.2431 -15.6213 14
      vertex -51.7569 -15.6213 32.5
      vertex -52.2431 -15.6213 32.5
    endloop
  endfacet
  facet normal 0 -1 -0
    outer loop
      vertex -51.7569 -15.6213 32.5
      vertex -52.2431 -15.6213 14
      vertex -51.7569 -15.6213 14
    endloop
  endfacet
  facet normal -0.642787 -0.766045 0
    outer loop
      vertex -51.3 -15.7876 14
      vertex -50.9275 -16.1001 32.5
      vertex -51.3 -15.7876 32.5
    endloop
  endfacet
  facet normal -0.642787 -0.766045 -0
    outer loop
      vertex -50.9275 -16.1001 32.5
      vertex -51.3 -15.7876 14
      vertex -50.9275 -16.1001 14
    endloop
  endfacet
  facet normal -0.866026 -0.5 0
    outer loop
      vertex -50.6844 -16.5212 14
      vertex -50.9275 -16.1001 32.5
      vertex -50.9275 -16.1001 14
    endloop
  endfacet
  facet normal -0.866026 -0.5 0
    outer loop
      vertex -50.9275 -16.1001 32.5
      vertex -50.6844 -16.5212 14
      vertex -50.6844 -16.5212 32.5
    endloop
  endfacet
  facet normal -0.342021 -0.939692 0
    outer loop
      vertex -51.7569 -15.6213 14
      vertex -51.3 -15.7876 32.5
      vertex -51.7569 -15.6213 32.5
    endloop
  endfacet
  facet normal -0.342021 -0.939692 -0
    outer loop
      vertex -51.3 -15.7876 32.5
      vertex -51.7569 -15.6213 14
      vertex -51.3 -15.7876 14
    endloop
  endfacet
  facet normal 0.342021 -0.939692 0
    outer loop
      vertex -52.7 -15.7876 14
      vertex -52.2431 -15.6213 32.5
      vertex -52.7 -15.7876 32.5
    endloop
  endfacet
  facet normal 0.342021 -0.939692 0
    outer loop
      vertex -52.2431 -15.6213 32.5
      vertex -52.7 -15.7876 14
      vertex -52.2431 -15.6213 14
    endloop
  endfacet
  facet normal 0.866029 -0.499994 0
    outer loop
      vertex -53.3156 -16.5212 32.5
      vertex -53.0725 -16.1001 14
      vertex -53.0725 -16.1001 32.5
    endloop
  endfacet
  facet normal 0.866029 -0.499994 0
    outer loop
      vertex -53.0725 -16.1001 14
      vertex -53.3156 -16.5212 32.5
      vertex -53.3156 -16.5212 14
    endloop
  endfacet
  facet normal 0.642787 -0.766045 0
    outer loop
      vertex -53.0725 -16.1001 14
      vertex -52.7 -15.7876 32.5
      vertex -53.0725 -16.1001 32.5
    endloop
  endfacet
  facet normal 0.642787 -0.766045 0
    outer loop
      vertex -52.7 -15.7876 32.5
      vertex -53.0725 -16.1001 14
      vertex -52.7 -15.7876 14
    endloop
  endfacet
  facet normal -0.866026 0.5 0
    outer loop
      vertex -50.9275 -17.8999 14
      vertex -50.6844 -17.4788 32.5
      vertex -50.6844 -17.4788 14
    endloop
  endfacet
  facet normal -0.866026 0.5 0
    outer loop
      vertex -50.6844 -17.4788 32.5
      vertex -50.9275 -17.8999 14
      vertex -50.9275 -17.8999 32.5
    endloop
  endfacet
  facet normal 0.642786 0.766046 -0
    outer loop
      vertex -52.7 -18.2124 14
      vertex -53.0725 -17.8999 32.5
      vertex -52.7 -18.2124 32.5
    endloop
  endfacet
  facet normal 0.642786 0.766046 0
    outer loop
      vertex -53.0725 -17.8999 32.5
      vertex -52.7 -18.2124 14
      vertex -53.0725 -17.8999 14
    endloop
  endfacet
  facet normal 0.866029 0.499994 0
    outer loop
      vertex -53.0725 -17.8999 32.5
      vertex -53.3156 -17.4788 14
      vertex -53.3156 -17.4788 32.5
    endloop
  endfacet
  facet normal 0.866029 0.499994 0
    outer loop
      vertex -53.3156 -17.4788 14
      vertex -53.0725 -17.8999 32.5
      vertex -53.0725 -17.8999 14
    endloop
  endfacet
  facet normal -0.342021 0.939692 0
    outer loop
      vertex -51.3 -18.2124 14
      vertex -51.7569 -18.3787 32.5
      vertex -51.3 -18.2124 32.5
    endloop
  endfacet
  facet normal -0.342021 0.939692 0
    outer loop
      vertex -51.7569 -18.3787 32.5
      vertex -51.3 -18.2124 14
      vertex -51.7569 -18.3787 14
    endloop
  endfacet
  facet normal -0.642786 0.766046 0
    outer loop
      vertex -50.9275 -17.8999 14
      vertex -51.3 -18.2124 32.5
      vertex -50.9275 -17.8999 32.5
    endloop
  endfacet
  facet normal -0.642786 0.766046 0
    outer loop
      vertex -51.3 -18.2124 32.5
      vertex -50.9275 -17.8999 14
      vertex -51.3 -18.2124 14
    endloop
  endfacet
  facet normal -0.984808 0.173649 0
    outer loop
      vertex -50.6844 -17.4788 14
      vertex -50.6 -17 32.5
      vertex -50.6 -17 14
    endloop
  endfacet
  facet normal -0.984808 0.173649 0
    outer loop
      vertex -50.6 -17 32.5
      vertex -50.6844 -17.4788 14
      vertex -50.6844 -17.4788 32.5
    endloop
  endfacet
  facet normal 0 1 -0
    outer loop
      vertex -51.7569 -18.3787 14
      vertex -52.2431 -18.3787 32.5
      vertex -51.7569 -18.3787 32.5
    endloop
  endfacet
  facet normal 0 1 0
    outer loop
      vertex -52.2431 -18.3787 32.5
      vertex -51.7569 -18.3787 14
      vertex -52.2431 -18.3787 14
    endloop
  endfacet
  facet normal 0.342021 0.939692 -0
    outer loop
      vertex -52.2431 -18.3787 14
      vertex -52.7 -18.2124 32.5
      vertex -52.2431 -18.3787 32.5
    endloop
  endfacet
  facet normal 0.342021 0.939692 0
    outer loop
      vertex -52.7 -18.2124 32.5
      vertex -52.2431 -18.3787 14
      vertex -52.7 -18.2124 14
    endloop
  endfacet
endsolid OpenSCAD_Model
