solid OpenSCAD_Model
  facet normal 0.994522 0.104529 0
    outer loop
      vertex 5.2 0 0.5
      vertex 5.08637 1.08114 0
      vertex 5.08637 1.08114 0.5
    endloop
  endfacet
  facet normal 0.994522 0.104529 0
    outer loop
      vertex 5.08637 1.08114 0
      vertex 5.2 0 0.5
      vertex 5.2 0 0
    endloop
  endfacet
  facet normal -0.994522 0.104529 0
    outer loop
      vertex -5.2 0 0
      vertex -5.08637 1.08114 0.5
      vertex -5.08637 1.08114 0
    endloop
  endfacet
  facet normal -0.994522 0.104529 0
    outer loop
      vertex -5.08637 1.08114 0.5
      vertex -5.2 0 0
      vertex -5.2 0 0.5
    endloop
  endfacet
  facet normal 0 1 -0
    outer loop
      vertex 0.543548 5.17151 0
      vertex -0.543548 5.17151 0.5
      vertex 0.543548 5.17151 0.5
    endloop
  endfacet
  facet normal 0 1 0
    outer loop
      vertex -0.543548 5.17151 0.5
      vertex 0.543548 5.17151 0
      vertex -0.543548 5.17151 0
    endloop
  endfacet
  facet normal 0 -1 0
    outer loop
      vertex -0.543548 -5.17151 0
      vertex 0.543548 -5.17151 0.5
      vertex -0.543548 -5.17151 0.5
    endloop
  endfacet
  facet normal 0 -1 -0
    outer loop
      vertex 0.543548 -5.17151 0.5
      vertex -0.543548 -5.17151 0
      vertex 0.543548 -5.17151 0
    endloop
  endfacet
  facet normal 0.743144 0.669131 0
    outer loop
      vertex 4.20689 3.05648 0.5
      vertex 3.47948 3.86435 0
      vertex 3.47948 3.86435 0.5
    endloop
  endfacet
  facet normal 0.743144 0.669131 0
    outer loop
      vertex 3.47948 3.86435 0
      vertex 4.20689 3.05648 0.5
      vertex 4.20689 3.05648 0
    endloop
  endfacet
  facet normal -0.743144 0.669131 0
    outer loop
      vertex -4.20689 3.05648 0
      vertex -3.47948 3.86435 0.5
      vertex -3.47948 3.86435 0
    endloop
  endfacet
  facet normal -0.743144 0.669131 0
    outer loop
      vertex -3.47948 3.86435 0.5
      vertex -4.20689 3.05648 0
      vertex -4.20689 3.05648 0.5
    endloop
  endfacet
  facet normal -0.866026 0.5 0
    outer loop
      vertex -4.75044 2.11503 0
      vertex -4.20689 3.05648 0.5
      vertex -4.20689 3.05648 0
    endloop
  endfacet
  facet normal -0.866026 0.5 0
    outer loop
      vertex -4.20689 3.05648 0.5
      vertex -4.75044 2.11503 0
      vertex -4.75044 2.11503 0.5
    endloop
  endfacet
  facet normal -0.406737 0.913545 0
    outer loop
      vertex -1.60689 4.94549 0
      vertex -2.6 4.50333 0.5
      vertex -1.60689 4.94549 0.5
    endloop
  endfacet
  facet normal -0.406737 0.913545 0
    outer loop
      vertex -2.6 4.50333 0.5
      vertex -1.60689 4.94549 0
      vertex -2.6 4.50333 0
    endloop
  endfacet
  facet normal 0.951057 -0.309017 0
    outer loop
      vertex 4.75044 -2.11503 0.5
      vertex 5.08637 -1.08114 0
      vertex 5.08637 -1.08114 0.5
    endloop
  endfacet
  facet normal 0.951057 -0.309017 0
    outer loop
      vertex 5.08637 -1.08114 0
      vertex 4.75044 -2.11503 0.5
      vertex 4.75044 -2.11503 0
    endloop
  endfacet
  facet normal 0.866026 0.5 0
    outer loop
      vertex 4.75044 2.11503 0.5
      vertex 4.20689 3.05648 0
      vertex 4.20689 3.05648 0.5
    endloop
  endfacet
  facet normal 0.866026 0.5 0
    outer loop
      vertex 4.20689 3.05648 0
      vertex 4.75044 2.11503 0.5
      vertex 4.75044 2.11503 0
    endloop
  endfacet
  facet normal 0.951057 0.309017 0
    outer loop
      vertex 5.08637 1.08114 0.5
      vertex 4.75044 2.11503 0
      vertex 4.75044 2.11503 0.5
    endloop
  endfacet
  facet normal 0.951057 0.309017 0
    outer loop
      vertex 4.75044 2.11503 0
      vertex 5.08637 1.08114 0.5
      vertex 5.08637 1.08114 0
    endloop
  endfacet
  facet normal 0.406737 0.913545 -0
    outer loop
      vertex 2.6 4.50333 0
      vertex 1.60689 4.94549 0.5
      vertex 2.6 4.50333 0.5
    endloop
  endfacet
  facet normal 0.406737 0.913545 0
    outer loop
      vertex 1.60689 4.94549 0.5
      vertex 2.6 4.50333 0
      vertex 1.60689 4.94549 0
    endloop
  endfacet
  facet normal 0.207912 0.978148 -0
    outer loop
      vertex 1.60689 4.94549 0
      vertex 0.543548 5.17151 0.5
      vertex 1.60689 4.94549 0.5
    endloop
  endfacet
  facet normal 0.207912 0.978148 0
    outer loop
      vertex 0.543548 5.17151 0.5
      vertex 1.60689 4.94549 0
      vertex 0.543548 5.17151 0
    endloop
  endfacet
  facet normal 0.587785 0.809017 -0
    outer loop
      vertex 3.47948 3.86435 0
      vertex 2.6 4.50333 0.5
      vertex 3.47948 3.86435 0.5
    endloop
  endfacet
  facet normal 0.587785 0.809017 0
    outer loop
      vertex 2.6 4.50333 0.5
      vertex 3.47948 3.86435 0
      vertex 2.6 4.50333 0
    endloop
  endfacet
  facet normal -0.951057 0.309017 0
    outer loop
      vertex -5.08637 1.08114 0
      vertex -4.75044 2.11503 0.5
      vertex -4.75044 2.11503 0
    endloop
  endfacet
  facet normal -0.951057 0.309017 0
    outer loop
      vertex -4.75044 2.11503 0.5
      vertex -5.08637 1.08114 0
      vertex -5.08637 1.08114 0.5
    endloop
  endfacet
  facet normal 0 0 1
    outer loop
      vertex 4.2 0 0.5
      vertex 5.2 0 0.5
      vertex 5.08637 1.08114 0.5
    endloop
  endfacet
  facet normal 0 0 1
    outer loop
      vertex 4.10822 0.873229 0.5
      vertex 5.08637 1.08114 0.5
      vertex 4.75044 2.11503 0.5
    endloop
  endfacet
  facet normal 0 0 1
    outer loop
      vertex 5.2 0 0.5
      vertex 4.2 0 0.5
      vertex 5.08637 -1.08114 0.5
    endloop
  endfacet
  facet normal 0 0 1
    outer loop
      vertex 3.83689 1.70829 0.5
      vertex 4.75044 2.11503 0.5
      vertex 4.20689 3.05648 0.5
    endloop
  endfacet
  facet normal -0 0 1
    outer loop
      vertex 4.10822 -0.873229 0.5
      vertex 5.08637 -1.08114 0.5
      vertex 4.2 0 0.5
    endloop
  endfacet
  facet normal 0 0 1
    outer loop
      vertex 5.08637 -1.08114 0.5
      vertex 4.10822 -0.873229 0.5
      vertex 4.75044 -2.11503 0.5
    endloop
  endfacet
  facet normal 0 0 1
    outer loop
      vertex 5.08637 1.08114 0.5
      vertex 4.10822 0.873229 0.5
      vertex 4.2 0 0.5
    endloop
  endfacet
  facet normal 0 0 1
    outer loop
      vertex 4.75044 2.11503 0.5
      vertex 3.83689 1.70829 0.5
      vertex 4.10822 0.873229 0.5
    endloop
  endfacet
  facet normal 0 0 1
    outer loop
      vertex 3.39787 2.4687 0.5
      vertex 4.20689 3.05648 0.5
      vertex 3.47948 3.86435 0.5
    endloop
  endfacet
  facet normal 0 0 1
    outer loop
      vertex 4.20689 3.05648 0.5
      vertex 3.39787 2.4687 0.5
      vertex 3.83689 1.70829 0.5
    endloop
  endfacet
  facet normal 0 0 1
    outer loop
      vertex 3.47948 3.86435 0.5
      vertex 2.81035 3.12121 0.5
      vertex 3.39787 2.4687 0.5
    endloop
  endfacet
  facet normal 0 0 1
    outer loop
      vertex 2.6 4.50333 0.5
      vertex 2.81035 3.12121 0.5
      vertex 3.47948 3.86435 0.5
    endloop
  endfacet
  facet normal 0 0 1
    outer loop
      vertex 2.6 4.50333 0.5
      vertex 2.1 3.63731 0.5
      vertex 2.81035 3.12121 0.5
    endloop
  endfacet
  facet normal 0 0 1
    outer loop
      vertex 1.60689 4.94549 0.5
      vertex 2.1 3.63731 0.5
      vertex 2.6 4.50333 0.5
    endloop
  endfacet
  facet normal 0 0 1
    outer loop
      vertex 1.60689 4.94549 0.5
      vertex 1.29787 3.99444 0.5
      vertex 2.1 3.63731 0.5
    endloop
  endfacet
  facet normal 0 0 1
    outer loop
      vertex 0.543548 5.17151 0.5
      vertex 1.29787 3.99444 0.5
      vertex 1.60689 4.94549 0.5
    endloop
  endfacet
  facet normal 0 0 1
    outer loop
      vertex 0.543548 5.17151 0.5
      vertex 0.439019 4.17699 0.5
      vertex 1.29787 3.99444 0.5
    endloop
  endfacet
  facet normal 0 0 1
    outer loop
      vertex 0.543548 5.17151 0.5
      vertex -0.439019 4.17699 0.5
      vertex 0.439019 4.17699 0.5
    endloop
  endfacet
  facet normal -0 0 1
    outer loop
      vertex -0.543548 5.17151 0.5
      vertex -0.439019 4.17699 0.5
      vertex 0.543548 5.17151 0.5
    endloop
  endfacet
  facet normal 0 0 1
    outer loop
      vertex -0.543548 5.17151 0.5
      vertex -1.29787 3.99444 0.5
      vertex -0.439019 4.17699 0.5
    endloop
  endfacet
  facet normal -0 0 1
    outer loop
      vertex -1.60689 4.94549 0.5
      vertex -1.29787 3.99444 0.5
      vertex -0.543548 5.17151 0.5
    endloop
  endfacet
  facet normal 0 0 1
    outer loop
      vertex -1.60689 4.94549 0.5
      vertex -2.1 3.63731 0.5
      vertex -1.29787 3.99444 0.5
    endloop
  endfacet
  facet normal -0 0 1
    outer loop
      vertex -2.6 4.50333 0.5
      vertex -2.1 3.63731 0.5
      vertex -1.60689 4.94549 0.5
    endloop
  endfacet
  facet normal 0 0 1
    outer loop
      vertex -2.6 4.50333 0.5
      vertex -2.81035 3.12121 0.5
      vertex -2.1 3.63731 0.5
    endloop
  endfacet
  facet normal -0 0 1
    outer loop
      vertex -3.47948 3.86435 0.5
      vertex -2.81035 3.12121 0.5
      vertex -2.6 4.50333 0.5
    endloop
  endfacet
  facet normal 0 0 1
    outer loop
      vertex -2.81035 3.12121 0.5
      vertex -3.47948 3.86435 0.5
      vertex -3.39787 2.4687 0.5
    endloop
  endfacet
  facet normal -0 0 1
    outer loop
      vertex -4.20689 3.05648 0.5
      vertex -3.39787 2.4687 0.5
      vertex -3.47948 3.86435 0.5
    endloop
  endfacet
  facet normal 0 0 1
    outer loop
      vertex -3.39787 2.4687 0.5
      vertex -4.20689 3.05648 0.5
      vertex -3.83689 1.70829 0.5
    endloop
  endfacet
  facet normal 0 0 1
    outer loop
      vertex -3.83689 1.70829 0.5
      vertex -4.75044 2.11503 0.5
      vertex -4.10822 0.873229 0.5
    endloop
  endfacet
  facet normal -0 0 1
    outer loop
      vertex -4.75044 2.11503 0.5
      vertex -3.83689 1.70829 0.5
      vertex -4.20689 3.05648 0.5
    endloop
  endfacet
  facet normal -0 0 1
    outer loop
      vertex 3.83689 -1.70829 0.5
      vertex 4.75044 -2.11503 0.5
      vertex 4.10822 -0.873229 0.5
    endloop
  endfacet
  facet normal 0 0 1
    outer loop
      vertex 4.75044 -2.11503 0.5
      vertex 3.83689 -1.70829 0.5
      vertex 4.20689 -3.05648 0.5
    endloop
  endfacet
  facet normal -0 0 1
    outer loop
      vertex 3.39787 -2.4687 0.5
      vertex 4.20689 -3.05648 0.5
      vertex 3.83689 -1.70829 0.5
    endloop
  endfacet
  facet normal 0 0 1
    outer loop
      vertex 4.20689 -3.05648 0.5
      vertex 3.39787 -2.4687 0.5
      vertex 3.47948 -3.86435 0.5
    endloop
  endfacet
  facet normal -0 0 1
    outer loop
      vertex 2.81035 -3.12121 0.5
      vertex 3.47948 -3.86435 0.5
      vertex 3.39787 -2.4687 0.5
    endloop
  endfacet
  facet normal 0 0 1
    outer loop
      vertex 2.81035 -3.12121 0.5
      vertex 2.6 -4.50333 0.5
      vertex 3.47948 -3.86435 0.5
    endloop
  endfacet
  facet normal -0 0 1
    outer loop
      vertex 2.1 -3.63731 0.5
      vertex 2.6 -4.50333 0.5
      vertex 2.81035 -3.12121 0.5
    endloop
  endfacet
  facet normal 0 0 1
    outer loop
      vertex 2.1 -3.63731 0.5
      vertex 1.60689 -4.94549 0.5
      vertex 2.6 -4.50333 0.5
    endloop
  endfacet
  facet normal -0 0 1
    outer loop
      vertex 1.29787 -3.99444 0.5
      vertex 1.60689 -4.94549 0.5
      vertex 2.1 -3.63731 0.5
    endloop
  endfacet
  facet normal 0 0 1
    outer loop
      vertex 1.29787 -3.99444 0.5
      vertex 0.543548 -5.17151 0.5
      vertex 1.60689 -4.94549 0.5
    endloop
  endfacet
  facet normal -0 0 1
    outer loop
      vertex 0.439019 -4.17699 0.5
      vertex 0.543548 -5.17151 0.5
      vertex 1.29787 -3.99444 0.5
    endloop
  endfacet
  facet normal -0 0 1
    outer loop
      vertex -0.439019 -4.17699 0.5
      vertex 0.543548 -5.17151 0.5
      vertex 0.439019 -4.17699 0.5
    endloop
  endfacet
  facet normal 0 0 1
    outer loop
      vertex -0.439019 -4.17699 0.5
      vertex -0.543548 -5.17151 0.5
      vertex 0.543548 -5.17151 0.5
    endloop
  endfacet
  facet normal 0 0 1
    outer loop
      vertex -1.29787 -3.99444 0.5
      vertex -0.543548 -5.17151 0.5
      vertex -0.439019 -4.17699 0.5
    endloop
  endfacet
  facet normal 0 0 1
    outer loop
      vertex -1.29787 -3.99444 0.5
      vertex -1.60689 -4.94549 0.5
      vertex -0.543548 -5.17151 0.5
    endloop
  endfacet
  facet normal 0 0 1
    outer loop
      vertex -2.1 -3.63731 0.5
      vertex -1.60689 -4.94549 0.5
      vertex -1.29787 -3.99444 0.5
    endloop
  endfacet
  facet normal 0 0 1
    outer loop
      vertex -2.1 -3.63731 0.5
      vertex -2.6 -4.50333 0.5
      vertex -1.60689 -4.94549 0.5
    endloop
  endfacet
  facet normal 0 0 1
    outer loop
      vertex -2.81035 -3.12121 0.5
      vertex -2.6 -4.50333 0.5
      vertex -2.1 -3.63731 0.5
    endloop
  endfacet
  facet normal 0 0 1
    outer loop
      vertex -3.47948 -3.86435 0.5
      vertex -2.81035 -3.12121 0.5
      vertex -3.39787 -2.4687 0.5
    endloop
  endfacet
  facet normal 0 0 1
    outer loop
      vertex -2.81035 -3.12121 0.5
      vertex -3.47948 -3.86435 0.5
      vertex -2.6 -4.50333 0.5
    endloop
  endfacet
  facet normal 0 0 1
    outer loop
      vertex -4.20689 -3.05648 0.5
      vertex -3.39787 -2.4687 0.5
      vertex -3.83689 -1.70829 0.5
    endloop
  endfacet
  facet normal 0 0 1
    outer loop
      vertex -4.75044 -2.11503 0.5
      vertex -3.83689 -1.70829 0.5
      vertex -4.10822 -0.873229 0.5
    endloop
  endfacet
  facet normal 0 0 1
    outer loop
      vertex -3.39787 -2.4687 0.5
      vertex -4.20689 -3.05648 0.5
      vertex -3.47948 -3.86435 0.5
    endloop
  endfacet
  facet normal 0 0 1
    outer loop
      vertex -5.08637 -1.08114 0.5
      vertex -4.10822 -0.873229 0.5
      vertex -4.2 0 0.5
    endloop
  endfacet
  facet normal -0 0 1
    outer loop
      vertex -5.08637 1.08114 0.5
      vertex -4.10822 0.873229 0.5
      vertex -4.75044 2.11503 0.5
    endloop
  endfacet
  facet normal 0 0 1
    outer loop
      vertex -4.10822 0.873229 0.5
      vertex -5.08637 1.08114 0.5
      vertex -4.2 0 0.5
    endloop
  endfacet
  facet normal 0 0 1
    outer loop
      vertex -3.83689 -1.70829 0.5
      vertex -4.75044 -2.11503 0.5
      vertex -4.20689 -3.05648 0.5
    endloop
  endfacet
  facet normal 0 0 1
    outer loop
      vertex -5.2 0 0.5
      vertex -4.2 0 0.5
      vertex -5.08637 1.08114 0.5
    endloop
  endfacet
  facet normal 0 0 1
    outer loop
      vertex -4.10822 -0.873229 0.5
      vertex -5.08637 -1.08114 0.5
      vertex -4.75044 -2.11503 0.5
    endloop
  endfacet
  facet normal 0 0 1
    outer loop
      vertex -4.2 0 0.5
      vertex -5.2 0 0.5
      vertex -5.08637 -1.08114 0.5
    endloop
  endfacet
  facet normal -0.587785 0.809017 0
    outer loop
      vertex -2.6 4.50333 0
      vertex -3.47948 3.86435 0.5
      vertex -2.6 4.50333 0.5
    endloop
  endfacet
  facet normal -0.587785 0.809017 0
    outer loop
      vertex -3.47948 3.86435 0.5
      vertex -2.6 4.50333 0
      vertex -3.47948 3.86435 0
    endloop
  endfacet
  facet normal -0.207912 0.978148 0
    outer loop
      vertex -0.543548 5.17151 0
      vertex -1.60689 4.94549 0.5
      vertex -0.543548 5.17151 0.5
    endloop
  endfacet
  facet normal -0.207912 0.978148 0
    outer loop
      vertex -1.60689 4.94549 0.5
      vertex -0.543548 5.17151 0
      vertex -1.60689 4.94549 0
    endloop
  endfacet
  facet normal 0.994522 -0.104529 0
    outer loop
      vertex 5.08637 -1.08114 0.5
      vertex 5.2 0 0
      vertex 5.2 0 0.5
    endloop
  endfacet
  facet normal 0.994522 -0.104529 0
    outer loop
      vertex 5.2 0 0
      vertex 5.08637 -1.08114 0.5
      vertex 5.08637 -1.08114 0
    endloop
  endfacet
  facet normal 0 0 -1
    outer loop
      vertex 4.2 0 0
      vertex 5.2 0 0
      vertex 5.08637 -1.08114 0
    endloop
  endfacet
  facet normal 0 0 -1
    outer loop
      vertex 4.10822 -0.873229 0
      vertex 5.08637 -1.08114 0
      vertex 4.75044 -2.11503 0
    endloop
  endfacet
  facet normal 0 0 -1
    outer loop
      vertex 5.2 0 0
      vertex 4.2 0 0
      vertex 5.08637 1.08114 0
    endloop
  endfacet
  facet normal 0 0 -1
    outer loop
      vertex 3.83689 -1.70829 0
      vertex 4.75044 -2.11503 0
      vertex 4.20689 -3.05648 0
    endloop
  endfacet
  facet normal 0 0 -1
    outer loop
      vertex 4.10822 0.873229 0
      vertex 5.08637 1.08114 0
      vertex 4.2 0 0
    endloop
  endfacet
  facet normal -0 0 -1
    outer loop
      vertex 5.08637 1.08114 0
      vertex 4.10822 0.873229 0
      vertex 4.75044 2.11503 0
    endloop
  endfacet
  facet normal 0 0 -1
    outer loop
      vertex 5.08637 -1.08114 0
      vertex 4.10822 -0.873229 0
      vertex 4.2 0 0
    endloop
  endfacet
  facet normal 0 0 -1
    outer loop
      vertex 4.75044 -2.11503 0
      vertex 3.83689 -1.70829 0
      vertex 4.10822 -0.873229 0
    endloop
  endfacet
  facet normal 0 0 -1
    outer loop
      vertex 3.39787 -2.4687 0
      vertex 4.20689 -3.05648 0
      vertex 3.47948 -3.86435 0
    endloop
  endfacet
  facet normal 0 0 -1
    outer loop
      vertex 4.20689 -3.05648 0
      vertex 3.39787 -2.4687 0
      vertex 3.83689 -1.70829 0
    endloop
  endfacet
  facet normal 0 0 -1
    outer loop
      vertex 3.47948 -3.86435 0
      vertex 2.81035 -3.12121 0
      vertex 3.39787 -2.4687 0
    endloop
  endfacet
  facet normal 0 0 -1
    outer loop
      vertex 2.6 -4.50333 0
      vertex 2.81035 -3.12121 0
      vertex 3.47948 -3.86435 0
    endloop
  endfacet
  facet normal 0 0 -1
    outer loop
      vertex 2.6 -4.50333 0
      vertex 2.1 -3.63731 0
      vertex 2.81035 -3.12121 0
    endloop
  endfacet
  facet normal 0 0 -1
    outer loop
      vertex 1.60689 -4.94549 0
      vertex 2.1 -3.63731 0
      vertex 2.6 -4.50333 0
    endloop
  endfacet
  facet normal 0 0 -1
    outer loop
      vertex 1.60689 -4.94549 0
      vertex 1.29787 -3.99444 0
      vertex 2.1 -3.63731 0
    endloop
  endfacet
  facet normal 0 0 -1
    outer loop
      vertex 0.543548 -5.17151 0
      vertex 1.29787 -3.99444 0
      vertex 1.60689 -4.94549 0
    endloop
  endfacet
  facet normal 0 0 -1
    outer loop
      vertex 0.543548 -5.17151 0
      vertex 0.439019 -4.17699 0
      vertex 1.29787 -3.99444 0
    endloop
  endfacet
  facet normal 0 0 -1
    outer loop
      vertex 0.543548 -5.17151 0
      vertex -0.439019 -4.17699 0
      vertex 0.439019 -4.17699 0
    endloop
  endfacet
  facet normal 0 0 -1
    outer loop
      vertex -0.543548 -5.17151 0
      vertex -0.439019 -4.17699 0
      vertex 0.543548 -5.17151 0
    endloop
  endfacet
  facet normal 0 0 -1
    outer loop
      vertex -0.543548 -5.17151 0
      vertex -1.29787 -3.99444 0
      vertex -0.439019 -4.17699 0
    endloop
  endfacet
  facet normal 0 0 -1
    outer loop
      vertex -1.60689 -4.94549 0
      vertex -1.29787 -3.99444 0
      vertex -0.543548 -5.17151 0
    endloop
  endfacet
  facet normal 0 0 -1
    outer loop
      vertex -1.60689 -4.94549 0
      vertex -2.1 -3.63731 0
      vertex -1.29787 -3.99444 0
    endloop
  endfacet
  facet normal 0 0 -1
    outer loop
      vertex -2.6 -4.50333 0
      vertex -2.1 -3.63731 0
      vertex -1.60689 -4.94549 0
    endloop
  endfacet
  facet normal 0 0 -1
    outer loop
      vertex -2.6 -4.50333 0
      vertex -2.81035 -3.12121 0
      vertex -2.1 -3.63731 0
    endloop
  endfacet
  facet normal 0 0 -1
    outer loop
      vertex -3.47948 -3.86435 0
      vertex -2.81035 -3.12121 0
      vertex -2.6 -4.50333 0
    endloop
  endfacet
  facet normal -0 0 -1
    outer loop
      vertex -2.81035 -3.12121 0
      vertex -3.47948 -3.86435 0
      vertex -3.39787 -2.4687 0
    endloop
  endfacet
  facet normal 0 0 -1
    outer loop
      vertex -4.20689 -3.05648 0
      vertex -3.39787 -2.4687 0
      vertex -3.47948 -3.86435 0
    endloop
  endfacet
  facet normal -0 0 -1
    outer loop
      vertex -3.39787 -2.4687 0
      vertex -4.20689 -3.05648 0
      vertex -3.83689 -1.70829 0
    endloop
  endfacet
  facet normal -0 0 -1
    outer loop
      vertex -3.83689 -1.70829 0
      vertex -4.75044 -2.11503 0
      vertex -4.10822 -0.873229 0
    endloop
  endfacet
  facet normal 0 0 -1
    outer loop
      vertex -4.75044 -2.11503 0
      vertex -3.83689 -1.70829 0
      vertex -4.20689 -3.05648 0
    endloop
  endfacet
  facet normal 0 0 -1
    outer loop
      vertex 3.83689 1.70829 0
      vertex 4.75044 2.11503 0
      vertex 4.10822 0.873229 0
    endloop
  endfacet
  facet normal -0 0 -1
    outer loop
      vertex 4.75044 2.11503 0
      vertex 3.83689 1.70829 0
      vertex 4.20689 3.05648 0
    endloop
  endfacet
  facet normal 0 0 -1
    outer loop
      vertex 3.39787 2.4687 0
      vertex 4.20689 3.05648 0
      vertex 3.83689 1.70829 0
    endloop
  endfacet
  facet normal -0 0 -1
    outer loop
      vertex 4.20689 3.05648 0
      vertex 3.39787 2.4687 0
      vertex 3.47948 3.86435 0
    endloop
  endfacet
  facet normal 0 0 -1
    outer loop
      vertex 2.81035 3.12121 0
      vertex 3.47948 3.86435 0
      vertex 3.39787 2.4687 0
    endloop
  endfacet
  facet normal 0 0 -1
    outer loop
      vertex 2.81035 3.12121 0
      vertex 2.6 4.50333 0
      vertex 3.47948 3.86435 0
    endloop
  endfacet
  facet normal 0 0 -1
    outer loop
      vertex 2.1 3.63731 0
      vertex 2.6 4.50333 0
      vertex 2.81035 3.12121 0
    endloop
  endfacet
  facet normal 0 0 -1
    outer loop
      vertex 2.1 3.63731 0
      vertex 1.60689 4.94549 0
      vertex 2.6 4.50333 0
    endloop
  endfacet
  facet normal 0 0 -1
    outer loop
      vertex 1.29787 3.99444 0
      vertex 1.60689 4.94549 0
      vertex 2.1 3.63731 0
    endloop
  endfacet
  facet normal 0 0 -1
    outer loop
      vertex 1.29787 3.99444 0
      vertex 0.543548 5.17151 0
      vertex 1.60689 4.94549 0
    endloop
  endfacet
  facet normal 0 0 -1
    outer loop
      vertex 0.439019 4.17699 0
      vertex 0.543548 5.17151 0
      vertex 1.29787 3.99444 0
    endloop
  endfacet
  facet normal 0 0 -1
    outer loop
      vertex -0.439019 4.17699 0
      vertex 0.543548 5.17151 0
      vertex 0.439019 4.17699 0
    endloop
  endfacet
  facet normal 0 0 -1
    outer loop
      vertex -0.439019 4.17699 0
      vertex -0.543548 5.17151 0
      vertex 0.543548 5.17151 0
    endloop
  endfacet
  facet normal 0 0 -1
    outer loop
      vertex -1.29787 3.99444 0
      vertex -0.543548 5.17151 0
      vertex -0.439019 4.17699 0
    endloop
  endfacet
  facet normal 0 0 -1
    outer loop
      vertex -1.29787 3.99444 0
      vertex -1.60689 4.94549 0
      vertex -0.543548 5.17151 0
    endloop
  endfacet
  facet normal 0 0 -1
    outer loop
      vertex -2.1 3.63731 0
      vertex -1.60689 4.94549 0
      vertex -1.29787 3.99444 0
    endloop
  endfacet
  facet normal 0 0 -1
    outer loop
      vertex -2.1 3.63731 0
      vertex -2.6 4.50333 0
      vertex -1.60689 4.94549 0
    endloop
  endfacet
  facet normal 0 0 -1
    outer loop
      vertex -2.81035 3.12121 0
      vertex -2.6 4.50333 0
      vertex -2.1 3.63731 0
    endloop
  endfacet
  facet normal 0 0 -1
    outer loop
      vertex -3.47948 3.86435 0
      vertex -2.81035 3.12121 0
      vertex -3.39787 2.4687 0
    endloop
  endfacet
  facet normal 0 0 -1
    outer loop
      vertex -2.81035 3.12121 0
      vertex -3.47948 3.86435 0
      vertex -2.6 4.50333 0
    endloop
  endfacet
  facet normal 0 0 -1
    outer loop
      vertex -4.20689 3.05648 0
      vertex -3.39787 2.4687 0
      vertex -3.83689 1.70829 0
    endloop
  endfacet
  facet normal 0 0 -1
    outer loop
      vertex -4.75044 2.11503 0
      vertex -3.83689 1.70829 0
      vertex -4.10822 0.873229 0
    endloop
  endfacet
  facet normal 0 0 -1
    outer loop
      vertex -3.39787 2.4687 0
      vertex -4.20689 3.05648 0
      vertex -3.47948 3.86435 0
    endloop
  endfacet
  facet normal 0 0 -1
    outer loop
      vertex -5.08637 1.08114 0
      vertex -4.10822 0.873229 0
      vertex -4.2 0 0
    endloop
  endfacet
  facet normal 0 0 -1
    outer loop
      vertex -5.08637 -1.08114 0
      vertex -4.10822 -0.873229 0
      vertex -4.75044 -2.11503 0
    endloop
  endfacet
  facet normal -0 0 -1
    outer loop
      vertex -4.10822 -0.873229 0
      vertex -5.08637 -1.08114 0
      vertex -4.2 0 0
    endloop
  endfacet
  facet normal 0 0 -1
    outer loop
      vertex -3.83689 1.70829 0
      vertex -4.75044 2.11503 0
      vertex -4.20689 3.05648 0
    endloop
  endfacet
  facet normal 0 0 -1
    outer loop
      vertex -5.2 0 0
      vertex -4.2 0 0
      vertex -5.08637 -1.08114 0
    endloop
  endfacet
  facet normal 0 0 -1
    outer loop
      vertex -4.10822 0.873229 0
      vertex -5.08637 1.08114 0
      vertex -4.75044 2.11503 0
    endloop
  endfacet
  facet normal 0 0 -1
    outer loop
      vertex -4.2 0 0
      vertex -5.2 0 0
      vertex -5.08637 1.08114 0
    endloop
  endfacet
  facet normal 0.207912 -0.978148 0
    outer loop
      vertex 0.543548 -5.17151 0
      vertex 1.60689 -4.94549 0.5
      vertex 0.543548 -5.17151 0.5
    endloop
  endfacet
  facet normal 0.207912 -0.978148 0
    outer loop
      vertex 1.60689 -4.94549 0.5
      vertex 0.543548 -5.17151 0
      vertex 1.60689 -4.94549 0
    endloop
  endfacet
  facet normal 0.866026 -0.5 0
    outer loop
      vertex 4.20689 -3.05648 0.5
      vertex 4.75044 -2.11503 0
      vertex 4.75044 -2.11503 0.5
    endloop
  endfacet
  facet normal 0.866026 -0.5 0
    outer loop
      vertex 4.75044 -2.11503 0
      vertex 4.20689 -3.05648 0.5
      vertex 4.20689 -3.05648 0
    endloop
  endfacet
  facet normal -0.866026 -0.5 0
    outer loop
      vertex -4.20689 -3.05648 0
      vertex -4.75044 -2.11503 0.5
      vertex -4.75044 -2.11503 0
    endloop
  endfacet
  facet normal -0.866026 -0.5 0
    outer loop
      vertex -4.75044 -2.11503 0.5
      vertex -4.20689 -3.05648 0
      vertex -4.20689 -3.05648 0.5
    endloop
  endfacet
  facet normal 0.587785 -0.809017 0
    outer loop
      vertex 2.6 -4.50333 0
      vertex 3.47948 -3.86435 0.5
      vertex 2.6 -4.50333 0.5
    endloop
  endfacet
  facet normal 0.587785 -0.809017 0
    outer loop
      vertex 3.47948 -3.86435 0.5
      vertex 2.6 -4.50333 0
      vertex 3.47948 -3.86435 0
    endloop
  endfacet
  facet normal 0.406737 -0.913545 0
    outer loop
      vertex 1.60689 -4.94549 0
      vertex 2.6 -4.50333 0.5
      vertex 1.60689 -4.94549 0.5
    endloop
  endfacet
  facet normal 0.406737 -0.913545 0
    outer loop
      vertex 2.6 -4.50333 0.5
      vertex 1.60689 -4.94549 0
      vertex 2.6 -4.50333 0
    endloop
  endfacet
  facet normal -0.743144 -0.669131 0
    outer loop
      vertex -3.47948 -3.86435 0
      vertex -4.20689 -3.05648 0.5
      vertex -4.20689 -3.05648 0
    endloop
  endfacet
  facet normal -0.743144 -0.669131 0
    outer loop
      vertex -4.20689 -3.05648 0.5
      vertex -3.47948 -3.86435 0
      vertex -3.47948 -3.86435 0.5
    endloop
  endfacet
  facet normal -0.951057 -0.309017 0
    outer loop
      vertex -4.75044 -2.11503 0
      vertex -5.08637 -1.08114 0.5
      vertex -5.08637 -1.08114 0
    endloop
  endfacet
  facet normal -0.951057 -0.309017 0
    outer loop
      vertex -5.08637 -1.08114 0.5
      vertex -4.75044 -2.11503 0
      vertex -4.75044 -2.11503 0.5
    endloop
  endfacet
  facet normal -0.994522 -0.104529 0
    outer loop
      vertex -5.08637 -1.08114 0
      vertex -5.2 0 0.5
      vertex -5.2 0 0
    endloop
  endfacet
  facet normal -0.994522 -0.104529 0
    outer loop
      vertex -5.2 0 0.5
      vertex -5.08637 -1.08114 0
      vertex -5.08637 -1.08114 0.5
    endloop
  endfacet
  facet normal 0.743144 -0.669131 0
    outer loop
      vertex 3.47948 -3.86435 0.5
      vertex 4.20689 -3.05648 0
      vertex 4.20689 -3.05648 0.5
    endloop
  endfacet
  facet normal 0.743144 -0.669131 0
    outer loop
      vertex 4.20689 -3.05648 0
      vertex 3.47948 -3.86435 0.5
      vertex 3.47948 -3.86435 0
    endloop
  endfacet
  facet normal -0.587785 -0.809017 0
    outer loop
      vertex -3.47948 -3.86435 0
      vertex -2.6 -4.50333 0.5
      vertex -3.47948 -3.86435 0.5
    endloop
  endfacet
  facet normal -0.587785 -0.809017 -0
    outer loop
      vertex -2.6 -4.50333 0.5
      vertex -3.47948 -3.86435 0
      vertex -2.6 -4.50333 0
    endloop
  endfacet
  facet normal -0.406737 -0.913545 0
    outer loop
      vertex -2.6 -4.50333 0
      vertex -1.60689 -4.94549 0.5
      vertex -2.6 -4.50333 0.5
    endloop
  endfacet
  facet normal -0.406737 -0.913545 -0
    outer loop
      vertex -1.60689 -4.94549 0.5
      vertex -2.6 -4.50333 0
      vertex -1.60689 -4.94549 0
    endloop
  endfacet
  facet normal -0.207912 -0.978148 0
    outer loop
      vertex -1.60689 -4.94549 0
      vertex -0.543548 -5.17151 0.5
      vertex -1.60689 -4.94549 0.5
    endloop
  endfacet
  facet normal -0.207912 -0.978148 -0
    outer loop
      vertex -0.543548 -5.17151 0.5
      vertex -1.60689 -4.94549 0
      vertex -0.543548 -5.17151 0
    endloop
  endfacet
  facet normal -0.994522 -0.104529 0
    outer loop
      vertex 4.2 0 0
      vertex 4.10822 0.873229 0.5
      vertex 4.10822 0.873229 0
    endloop
  endfacet
  facet normal -0.994522 -0.104529 0
    outer loop
      vertex 4.10822 0.873229 0.5
      vertex 4.2 0 0
      vertex 4.2 0 0.5
    endloop
  endfacet
  facet normal 0.994522 -0.104529 0
    outer loop
      vertex -4.2 0 0.5
      vertex -4.10822 0.873229 0
      vertex -4.10822 0.873229 0.5
    endloop
  endfacet
  facet normal 0.994522 -0.104529 0
    outer loop
      vertex -4.10822 0.873229 0
      vertex -4.2 0 0.5
      vertex -4.2 0 0
    endloop
  endfacet
  facet normal 0 -1 0
    outer loop
      vertex -0.439019 4.17699 0
      vertex 0.439019 4.17699 0.5
      vertex -0.439019 4.17699 0.5
    endloop
  endfacet
  facet normal 0 -1 -0
    outer loop
      vertex 0.439019 4.17699 0.5
      vertex -0.439019 4.17699 0
      vertex 0.439019 4.17699 0
    endloop
  endfacet
  facet normal 0 1 -0
    outer loop
      vertex 0.439019 -4.17699 0
      vertex -0.439019 -4.17699 0.5
      vertex 0.439019 -4.17699 0.5
    endloop
  endfacet
  facet normal 0 1 0
    outer loop
      vertex -0.439019 -4.17699 0.5
      vertex 0.439019 -4.17699 0
      vertex -0.439019 -4.17699 0
    endloop
  endfacet
  facet normal -0.743145 -0.66913 0
    outer loop
      vertex 3.39787 2.4687 0
      vertex 2.81035 3.12121 0.5
      vertex 2.81035 3.12121 0
    endloop
  endfacet
  facet normal -0.743145 -0.66913 0
    outer loop
      vertex 2.81035 3.12121 0.5
      vertex 3.39787 2.4687 0
      vertex 3.39787 2.4687 0.5
    endloop
  endfacet
  facet normal 0.587785 -0.809017 0
    outer loop
      vertex -2.81035 3.12121 0
      vertex -2.1 3.63731 0.5
      vertex -2.81035 3.12121 0.5
    endloop
  endfacet
  facet normal 0.587785 -0.809017 0
    outer loop
      vertex -2.1 3.63731 0.5
      vertex -2.81035 3.12121 0
      vertex -2.1 3.63731 0
    endloop
  endfacet
  facet normal 0.207911 -0.978148 0
    outer loop
      vertex -1.29787 3.99444 0
      vertex -0.439019 4.17699 0.5
      vertex -1.29787 3.99444 0.5
    endloop
  endfacet
  facet normal 0.207911 -0.978148 0
    outer loop
      vertex -0.439019 4.17699 0.5
      vertex -1.29787 3.99444 0
      vertex -0.439019 4.17699 0
    endloop
  endfacet
  facet normal -0.866026 -0.499999 0
    outer loop
      vertex 3.83689 1.70829 0
      vertex 3.39787 2.4687 0.5
      vertex 3.39787 2.4687 0
    endloop
  endfacet
  facet normal -0.866026 -0.499999 0
    outer loop
      vertex 3.39787 2.4687 0.5
      vertex 3.83689 1.70829 0
      vertex 3.83689 1.70829 0.5
    endloop
  endfacet
  facet normal -0.951056 -0.309017 0
    outer loop
      vertex 4.10822 0.873229 0
      vertex 3.83689 1.70829 0.5
      vertex 3.83689 1.70829 0
    endloop
  endfacet
  facet normal -0.951056 -0.309017 0
    outer loop
      vertex 3.83689 1.70829 0.5
      vertex 4.10822 0.873229 0
      vertex 4.10822 0.873229 0.5
    endloop
  endfacet
  facet normal -0.406737 -0.913545 0
    outer loop
      vertex 1.29787 3.99444 0
      vertex 2.1 3.63731 0.5
      vertex 1.29787 3.99444 0.5
    endloop
  endfacet
  facet normal -0.406737 -0.913545 -0
    outer loop
      vertex 2.1 3.63731 0.5
      vertex 1.29787 3.99444 0
      vertex 2.1 3.63731 0
    endloop
  endfacet
  facet normal -0.207911 -0.978148 0
    outer loop
      vertex 0.439019 4.17699 0
      vertex 1.29787 3.99444 0.5
      vertex 0.439019 4.17699 0.5
    endloop
  endfacet
  facet normal -0.207911 -0.978148 -0
    outer loop
      vertex 1.29787 3.99444 0.5
      vertex 0.439019 4.17699 0
      vertex 1.29787 3.99444 0
    endloop
  endfacet
  facet normal -0.587785 -0.809017 0
    outer loop
      vertex 2.1 3.63731 0
      vertex 2.81035 3.12121 0.5
      vertex 2.1 3.63731 0.5
    endloop
  endfacet
  facet normal -0.587785 -0.809017 -0
    outer loop
      vertex 2.81035 3.12121 0.5
      vertex 2.1 3.63731 0
      vertex 2.81035 3.12121 0
    endloop
  endfacet
  facet normal 0.866026 -0.499999 0
    outer loop
      vertex -3.83689 1.70829 0.5
      vertex -3.39787 2.4687 0
      vertex -3.39787 2.4687 0.5
    endloop
  endfacet
  facet normal 0.866026 -0.499999 0
    outer loop
      vertex -3.39787 2.4687 0
      vertex -3.83689 1.70829 0.5
      vertex -3.83689 1.70829 0
    endloop
  endfacet
  facet normal 0.743145 -0.66913 0
    outer loop
      vertex -3.39787 2.4687 0.5
      vertex -2.81035 3.12121 0
      vertex -2.81035 3.12121 0.5
    endloop
  endfacet
  facet normal 0.743145 -0.66913 0
    outer loop
      vertex -2.81035 3.12121 0
      vertex -3.39787 2.4687 0.5
      vertex -3.39787 2.4687 0
    endloop
  endfacet
  facet normal 0.951056 -0.309017 0
    outer loop
      vertex -4.10822 0.873229 0.5
      vertex -3.83689 1.70829 0
      vertex -3.83689 1.70829 0.5
    endloop
  endfacet
  facet normal 0.951056 -0.309017 0
    outer loop
      vertex -3.83689 1.70829 0
      vertex -4.10822 0.873229 0.5
      vertex -4.10822 0.873229 0
    endloop
  endfacet
  facet normal 0.406737 -0.913545 0
    outer loop
      vertex -2.1 3.63731 0
      vertex -1.29787 3.99444 0.5
      vertex -2.1 3.63731 0.5
    endloop
  endfacet
  facet normal 0.406737 -0.913545 0
    outer loop
      vertex -1.29787 3.99444 0.5
      vertex -2.1 3.63731 0
      vertex -1.29787 3.99444 0
    endloop
  endfacet
  facet normal -0.994522 0.104529 0
    outer loop
      vertex 4.10822 -0.873229 0
      vertex 4.2 0 0.5
      vertex 4.2 0 0
    endloop
  endfacet
  facet normal -0.994522 0.104529 0
    outer loop
      vertex 4.2 0 0.5
      vertex 4.10822 -0.873229 0
      vertex 4.10822 -0.873229 0.5
    endloop
  endfacet
  facet normal -0.207911 0.978148 0
    outer loop
      vertex 1.29787 -3.99444 0
      vertex 0.439019 -4.17699 0.5
      vertex 1.29787 -3.99444 0.5
    endloop
  endfacet
  facet normal -0.207911 0.978148 0
    outer loop
      vertex 0.439019 -4.17699 0.5
      vertex 1.29787 -3.99444 0
      vertex 0.439019 -4.17699 0
    endloop
  endfacet
  facet normal -0.743145 0.66913 0
    outer loop
      vertex 2.81035 -3.12121 0
      vertex 3.39787 -2.4687 0.5
      vertex 3.39787 -2.4687 0
    endloop
  endfacet
  facet normal -0.743145 0.66913 0
    outer loop
      vertex 3.39787 -2.4687 0.5
      vertex 2.81035 -3.12121 0
      vertex 2.81035 -3.12121 0.5
    endloop
  endfacet
  facet normal -0.951056 0.309017 0
    outer loop
      vertex 3.83689 -1.70829 0
      vertex 4.10822 -0.873229 0.5
      vertex 4.10822 -0.873229 0
    endloop
  endfacet
  facet normal -0.951056 0.309017 0
    outer loop
      vertex 4.10822 -0.873229 0.5
      vertex 3.83689 -1.70829 0
      vertex 3.83689 -1.70829 0.5
    endloop
  endfacet
  facet normal -0.866026 0.499999 0
    outer loop
      vertex 3.39787 -2.4687 0
      vertex 3.83689 -1.70829 0.5
      vertex 3.83689 -1.70829 0
    endloop
  endfacet
  facet normal -0.866026 0.499999 0
    outer loop
      vertex 3.83689 -1.70829 0.5
      vertex 3.39787 -2.4687 0
      vertex 3.39787 -2.4687 0.5
    endloop
  endfacet
  facet normal 0.866026 0.499999 0
    outer loop
      vertex -3.39787 -2.4687 0.5
      vertex -3.83689 -1.70829 0
      vertex -3.83689 -1.70829 0.5
    endloop
  endfacet
  facet normal 0.866026 0.499999 0
    outer loop
      vertex -3.83689 -1.70829 0
      vertex -3.39787 -2.4687 0.5
      vertex -3.39787 -2.4687 0
    endloop
  endfacet
  facet normal -0.587785 0.809017 0
    outer loop
      vertex 2.81035 -3.12121 0
      vertex 2.1 -3.63731 0.5
      vertex 2.81035 -3.12121 0.5
    endloop
  endfacet
  facet normal -0.587785 0.809017 0
    outer loop
      vertex 2.1 -3.63731 0.5
      vertex 2.81035 -3.12121 0
      vertex 2.1 -3.63731 0
    endloop
  endfacet
  facet normal -0.406737 0.913545 0
    outer loop
      vertex 2.1 -3.63731 0
      vertex 1.29787 -3.99444 0.5
      vertex 2.1 -3.63731 0.5
    endloop
  endfacet
  facet normal -0.406737 0.913545 0
    outer loop
      vertex 1.29787 -3.99444 0.5
      vertex 2.1 -3.63731 0
      vertex 1.29787 -3.99444 0
    endloop
  endfacet
  facet normal 0.207911 0.978148 -0
    outer loop
      vertex -0.439019 -4.17699 0
      vertex -1.29787 -3.99444 0.5
      vertex -0.439019 -4.17699 0.5
    endloop
  endfacet
  facet normal 0.207911 0.978148 0
    outer loop
      vertex -1.29787 -3.99444 0.5
      vertex -0.439019 -4.17699 0
      vertex -1.29787 -3.99444 0
    endloop
  endfacet
  facet normal 0.587785 0.809017 -0
    outer loop
      vertex -2.1 -3.63731 0
      vertex -2.81035 -3.12121 0.5
      vertex -2.1 -3.63731 0.5
    endloop
  endfacet
  facet normal 0.587785 0.809017 0
    outer loop
      vertex -2.81035 -3.12121 0.5
      vertex -2.1 -3.63731 0
      vertex -2.81035 -3.12121 0
    endloop
  endfacet
  facet normal 0.743145 0.66913 0
    outer loop
      vertex -2.81035 -3.12121 0.5
      vertex -3.39787 -2.4687 0
      vertex -3.39787 -2.4687 0.5
    endloop
  endfacet
  facet normal 0.743145 0.66913 0
    outer loop
      vertex -3.39787 -2.4687 0
      vertex -2.81035 -3.12121 0.5
      vertex -2.81035 -3.12121 0
    endloop
  endfacet
  facet normal 0.951056 0.309017 0
    outer loop
      vertex -3.83689 -1.70829 0.5
      vertex -4.10822 -0.873229 0
      vertex -4.10822 -0.873229 0.5
    endloop
  endfacet
  facet normal 0.951056 0.309017 0
    outer loop
      vertex -4.10822 -0.873229 0
      vertex -3.83689 -1.70829 0.5
      vertex -3.83689 -1.70829 0
    endloop
  endfacet
  facet normal 0.994522 0.104529 0
    outer loop
      vertex -4.10822 -0.873229 0.5
      vertex -4.2 0 0
      vertex -4.2 0 0.5
    endloop
  endfacet
  facet normal 0.994522 0.104529 0
    outer loop
      vertex -4.2 0 0
      vertex -4.10822 -0.873229 0.5
      vertex -4.10822 -0.873229 0
    endloop
  endfacet
  facet normal 0.406737 0.913545 -0
    outer loop
      vertex -1.29787 -3.99444 0
      vertex -2.1 -3.63731 0.5
      vertex -1.29787 -3.99444 0.5
    endloop
  endfacet
  facet normal 0.406737 0.913545 0
    outer loop
      vertex -2.1 -3.63731 0.5
      vertex -1.29787 -3.99444 0
      vertex -2.1 -3.63731 0
    endloop
  endfacet
endsolid OpenSCAD_Model
